<?xml version="1.0" encoding="UTF-8"?>
<svg xmlns="http://www.w3.org/2000/svg" viewBox="0 0 487.82 184.07">
  <defs>
    <style>
      .cls-1 {
        isolation: isolate;
      }

      .cls-2 {
        fill: none;
        stroke: #1d1d1b;
        stroke-width: 3px;
      }

      .cls-3 {
        fill: #fff;
      }

      .cls-3, .cls-4 {
        stroke-width: 0px;
      }

      .cls-4 {
        fill: #1d1d1b;
      }

      .cls-5 {
        mix-blend-mode: multiply;
      }
    </style>
  </defs>
  <g class="cls-1">
    <g id="Warstwa_1" data-name="Warstwa 1">
      <g>
        <g class="cls-5">
          <path class="cls-4" d="M71.51,58.12c-.04,4.07-.78,7.75-2.22,11.05-1.44,3.3-3.44,6.08-6.01,8.36-2.56,2.28-5.56,4.13-8.98,5.57-3.43,1.44-7.23,2.44-11.42,3.01-3.9.53-7.52.64-10.84.31-3.33-.33-6.19-.97-8.6-1.95-2.41-.98-4.61-2.27-6.59-3.89-1.99-1.62-3.64-3.34-4.96-5.16-1.32-1.82-2.48-3.86-3.47-6.12-1-2.26-1.76-4.38-2.3-6.38-.54-2-.99-4.1-1.34-6.31-.22-1.4-.33-2.11-.56-3.51-.32-3.93.13-7.58,1.36-10.95,1.23-3.37,2.94-6.19,5.12-8.47,2.18-2.28,4.77-4.29,7.78-6.02,3.01-1.73,5.99-3.06,8.95-3.98,2.95-.92,5.93-1.58,8.92-1.98,4.82-.65,9.15-.68,12.98-.12,3.83.56,7.02,1.65,9.58,3.24,2.56,1.59,4.63,3.52,6.22,5.79,1.59,2.27,2.73,4.88,3.43,7.84.18,1.54.27,2.31.44,3.85.1.86-3.1,1.65-9.59,2.43-1.53.19-3.67.42-6.4.71-2.73.29-4.53.49-5.38.6-.15.02-.37.06-.66.13-.29.07-.51.11-.66.13-.77.1-1.39-.11-1.86-.63-.47-.52-.83-1.19-1.07-2s-.51-1.62-.81-2.42c-.3-.8-.79-1.45-1.48-1.94-.68-.49-1.56-.67-2.63-.53-1.07.14-1.98.43-2.73.86-.76.43-1.32,1.02-1.7,1.76s-.68,1.49-.89,2.22c-.21.74-.31,1.67-.29,2.79.02,1.12.06,2.07.12,2.84.06.77.17,1.79.31,3.06.15,1.27.23,2.22.3,2.79.04.31.1.91.16,1.77.06.86.13,1.56.2,2.09.92,6.64,3.42,9.87,7.18,9.45,1.02-.11,1.86-.6,2.43-1.39.58-.78.93-1.62,1.07-2.5.13-.89.3-1.83.49-2.82.2-.99.46-1.68.8-2.08,9.54-1.25,14.31-1.84,23.86-2.94.97-.03,1.56.44,1.76,1.42Z"/>
          <path class="cls-4" d="M74.17,49.04c-.2-1.77-.3-2.65-.49-4.41-.12-3.78.4-7.3,1.57-10.56,1.17-3.26,2.82-6.07,4.94-8.43,2.12-2.36,4.65-4.43,7.59-6.21,2.94-1.77,6.07-3.15,9.39-4.14,3.32-.99,6.78-1.64,10.39-1.96,1.99-.17,4.07-.2,6.24-.09,2.18.12,4.49.4,6.95.85,2.46.45,4.84,1.22,7.13,2.31,2.3,1.08,4.23,2.42,5.78,4.01,3.19,3.04,5.57,6.3,7.13,9.77,1.56,3.47,2.46,7.41,2.77,11.74.64,9.03-1.01,16.52-5.01,22.36-.7,1.02-1.05,1.53-1.75,2.55-1.53,2.27-3.8,4.24-6.82,5.91-3.01,1.67-6.05,2.91-9.12,3.72-3.07.81-6.19,1.35-9.36,1.63-3.72.33-7.18.3-10.39-.09-3.21-.39-6.01-1.06-8.41-2.01-2.4-.95-4.59-2.17-6.56-3.67-1.97-1.5-3.64-3.12-4.99-4.87-1.35-1.75-2.52-3.68-3.51-5.79-.99-2.11-1.75-4.19-2.29-6.25-.54-2.05-.93-4.18-1.18-6.37ZM107.9,29.59c-1.22.11-2.29.46-3.21,1.06-.92.6-1.65,1.29-2.19,2.07-.54.78-.98,1.8-1.31,3.06-.33,1.26-.55,2.39-.67,3.39-.12,1-.16,2.25-.14,3.74.02,1.5.06,2.66.13,3.48.06.82.15,1.87.28,3.16.12,1.23.28,2.4.49,3.5.21,1.1.54,2.26.99,3.48.45,1.21.99,2.26,1.62,3.13.63.88,1.44,1.58,2.45,2.13,1,.54,2.15.81,3.35.73,1.26-.08,2.4-.41,3.36-.88.96-.47,1.74-1.04,2.36-1.7.62-.66,1.12-1.52,1.5-2.58.38-1.06.66-2.07.83-3.03.17-.96.26-2.14.28-3.55.02-1.41,0-2.61-.06-3.62-.05-1.01-.14-2.28-.27-3.81-.09-1.13-.22-2.17-.37-3.13-.15-.96-.37-2.02-.64-3.19-.28-1.17-.66-2.18-1.15-3.04-.49-.86-1.07-1.67-1.73-2.41-.66-.74-1.5-1.29-2.5-1.63-1-.35-2.13-.46-3.38-.35Z"/>
          <path class="cls-4" d="M148.16,42.58c-.11-1.77-.17-2.66-.28-4.43.06-3.78.75-7.27,2.08-10.47,1.33-3.2,3.11-5.93,5.34-8.18,2.23-2.26,4.85-4.2,7.87-5.83,3.02-1.63,6.21-2.85,9.57-3.68,3.36-.83,6.85-1.31,10.47-1.45,1.99-.08,4.07,0,6.23.21,2.17.22,4.46.62,6.89,1.19,2.43.57,4.77,1.46,7.01,2.65,2.24,1.19,4.1,2.62,5.58,4.29,3.04,3.19,5.25,6.56,6.64,10.1,1.39,3.54,2.1,7.52,2.19,11.86.2,9.05-1.81,16.45-6.09,22.09-.75.99-1.12,1.48-1.87,2.47-1.64,2.19-4,4.05-7.09,5.57-3.09,1.53-6.18,2.62-9.29,3.27-3.1.66-6.24,1.05-9.42,1.18-3.73.15-7.18-.05-10.36-.6-3.18-.55-5.95-1.35-8.3-2.42-2.35-1.06-4.47-2.39-6.37-3.98-1.9-1.59-3.48-3.29-4.74-5.1-1.26-1.81-2.34-3.8-3.22-5.95-.88-2.16-1.54-4.27-1.98-6.35-.44-2.08-.73-4.22-.87-6.42ZM182.77,24.79c-1.22.05-2.31.35-3.26.9-.95.55-1.71,1.2-2.29,1.96-.58.75-1.06,1.75-1.46,2.99-.39,1.24-.67,2.36-.83,3.35-.16.99-.27,2.24-.32,3.73-.05,1.5-.06,2.66-.04,3.48.02.82.06,1.88.12,3.17.06,1.24.16,2.41.31,3.52.15,1.11.43,2.28.82,3.52.39,1.24.88,2.31,1.46,3.21.58.9,1.36,1.65,2.34,2.24.98.59,2.1.92,3.31.89,1.26-.02,2.42-.29,3.39-.72.98-.43,1.79-.96,2.44-1.59.65-.63,1.19-1.46,1.62-2.5.43-1.04.76-2.03.97-2.98.22-.95.37-2.13.45-3.53.08-1.4.12-2.61.12-3.62,0-1.01-.03-2.28-.09-3.82-.04-1.13-.11-2.18-.22-3.14-.11-.97-.27-2.04-.49-3.22-.22-1.18-.55-2.21-1-3.1s-.98-1.72-1.61-2.49c-.62-.77-1.43-1.36-2.41-1.75-.99-.39-2.11-.57-3.36-.52Z"/>
          <path class="cls-4" d="M228.68,71.31c-.64,0-1.12-.05-1.46-.17-.33-.12-.55-.26-.66-.42-.1-.16-.27-.47-.51-.92-.23-19.14-.46-38.28-.68-57.42,0-.59,0-1.02,0-1.29.01-.27.06-.59.15-.95.09-.36.23-.62.42-.77.19-.15.47-.28.83-.39.36-.11.81-.17,1.35-.18,7.41-.08,11.12-.09,18.54-.08,4.34,0,6.51.51,6.5,1.48,0,.03,0,.05,0,.08-.18,10.01-.28,17.47-.31,22.37,5.06-9.42,7.63-14.12,12.84-23.5,3.74.07,5.61.11,9.35.2,12.78.26,19.15.77,19.13,1.31,0,.11-.07.16-.19.16-6.13,9.21-12.25,18.42-18.37,27.63,0,.45-.01.68-.02,1.13.72.44,1.08.65,1.79,1.09,5.91,9.81,11.74,19.65,17.52,29.54-.01.43-.36.89-1.04,1.38-11.14-.37-16.72-.51-27.86-.67-4.83-9.09-7.29-13.62-12.27-22.67-.18,1.48-.33,3.63-.44,6.46-.11,2.82-.19,4.68-.25,5.57-.02,3.81-.03,5.72-.06,9.53-.21.97-1.95,1.44-5.22,1.43-7.64-.02-11.46,0-19.09.07Z"/>
          <path class="cls-4" d="M298.05,71.97c.4-7.83.96-13.67,1.24-17.17.88-11.01,1.54-23.34,1.8-34.36.05-2.18-.03-3.93,0-5.01.02-.48.03-.73.04-1.21-.08-1.19-.1-2.16-.07-2.91.02-.51.31-.96.86-1.34,4.93.51,12.45.97,22.56,1.49,2.41.12,4.07.16,4.97.1-1.13,20.56-2.26,41.13-3.39,61.69-9.33-.52-18.67-.95-28.01-1.28Z"/>
          <path class="cls-4" d="M335.86,72.93c.45-7.29.67-10.93,1.12-18.22.74-12.71,1.9-25.41,3.07-38.09.08-1.32.12-1.98.21-3.31.04-.59.18-.93.43-1.03,10.35.63,20.7,1.38,31.03,2.24.3.02.83,1.1,1.57,3.21.74,2.11,1.63,4.83,2.65,8.15,1.02,3.32,1.74,5.6,2.17,6.86,1.98,6.11,2.96,9.16,4.89,15.28.57-6.24.86-9.36,1.43-15.6.12-1.34.39-3.8.79-7.37.4-3.57.67-6.38.84-8.38.06-.75,2.51-.91,7.31-.45,1.5.14,3.56.37,6.16.69,2.61.32,4.21.51,4.81.57,1.37.14,2.05.21,3.42.36.48.05.71.16.69.32-.89,10.68-2.02,21.34-3.13,31.99-.99,9.29-1.98,18.58-2.97,27.87-.28.67-1.23.92-2.88.75-.45-.05-.67-.07-1.12-.12-1.5-.16-3.71-.36-6.62-.59-2.92-.24-5.13-.42-6.63-.56-5.09-.48-7.63-.71-12.72-1.15-.39-.17-1.09-1.94-2.08-5.28-1.07-3.62-2.67-8.88-4.86-15.76-2.19-6.87-3.44-10.71-3.7-11.51-.12,1.58-.32,3.94-.59,7.08-.27,3.14-.47,5.5-.59,7.08-.09,1.18-.2,2.96-.32,5.32-.12,2.37-.23,4.14-.32,5.32-.16,2.03-.24,3.04-.39,5.07-.1,1.23-.72,1.81-1.88,1.72-7.97-.61-11.95-.88-19.93-1.39-.74-.43-1.11-.65-1.85-1.09Z"/>
          <path class="cls-4" d="M413.66,49.2c.41-3.69,1.25-7.03,2.51-10,1.26-2.97,2.78-5.44,4.56-7.41,1.78-1.96,3.85-3.65,6.21-5.05,2.36-1.4,4.76-2.46,7.18-3.18,2.43-.72,5.01-1.23,7.74-1.53,2.73-.3,5.27-.41,7.6-.33,2.34.08,4.69.28,7.06.61,1.74.24,3.43.54,5.07.91,1.64.37,3.48.87,5.51,1.5,2.03.63,3.9,1.43,5.6,2.39,1.7.96,3.31,2.07,4.81,3.32,1.5,1.25,2.74,2.76,3.71,4.53.97,1.77,1.57,3.7,1.79,5.78.03.79-.02,3.02-.14,6.68-.24.78-1.25,1.03-3.02.75-2.53-.39-6.21-1.01-11.03-1.84-4.82-.82-8.86-1.14-10.86-1.73-.31-.09-.59-.41-.75-.76-.16-.35-.25-.71-.28-1.1-.02-.38-.08-.8-.19-1.25-.1-.45-.26-.86-.46-1.23-.2-.37-.61-.71-1.22-1.02-.61-.31-1.38-.54-2.33-.67-1.24-.17-2.38-.13-3.41.13-1.03.26-1.89.62-2.59,1.1-.7.48-1.33,1.17-1.9,2.07-.57.9-1.02,1.73-1.34,2.49-.32.76-.63,1.74-.9,2.94-.28,1.2-.47,2.15-.57,2.84-.11.69-.23,1.61-.38,2.76-.05.35-.09.78-.12,1.29-.04.51-.07.86-.09,1.05-.06.48-.09.72-.16,1.2-.11.86-.19,1.56-.23,2.13-.04.56-.06,1.3-.04,2.19.02.9.1,1.66.26,2.29.15.63.41,1.32.77,2.06.36.74.84,1.36,1.44,1.86.6.5,1.37.96,2.32,1.37.95.41,2.05.71,3.3.88,3.22.44,5.9.52,8.05.23l.69-4.88c-.77-.11-1.15-.16-1.92-.27,0,.03,0,.05-.01.08-1.26-.18-1.89-.27-3.15-.44-.23-.03-.65-.08-1.25-.13-.6-.06-1.09-.11-1.47-.16-.54-.73-.81-1.09-1.36-1.82.6-4.42.9-6.63,1.5-11.04.09-.69.73-1.37,1.89-2.02,1.27.17,1.91.26,3.18.44,2.21.31,4.88.71,8.02,1.22,3.14.51,5.54.89,7.22,1.14,1.41.21,2.12.32,3.53.53,1.7.26,3.03.48,3.98.65.95.17,2,.47,3.13.88,1.14.41,2.1,1,2.17,1.38.45,2.27-1.44,8.55-2.67,15.2-1.23,6.65-2.08,11.47-2.56,14.48-.01.08-.02.21-.02.39,0,.18,0,.32-.02.43-.06.35-.08.53-.14.88-1.15.91-4.48,1.33-9.99,1.31-5.52-.02-10.1-.28-13.78-.8-.45-.06-.67-.1-1.12-.16-.8-.11-2-.23-3.6-.34-1.59-.11-2.81-.25-3.6-.33-8.35-.88-19.88-5.2-25.55-12.02-5.38-6.48-7.73-14.76-6.61-24.84Z"/>
          <path class="cls-4" d="M67.16,174.72c-2.27-17.84-4.53-35.68-6.8-53.52-.12-.91,2.01-1.64,6.39-2.18.48-.06,1.16-.13,2.05-.21.89-.08,1.5-.14,1.84-.18,2.22-.27,5.52-.7,9.9-1.27,4.39-.58,7.7-.97,9.95-1.21,1.55-.16,3.85-.38,6.9-.63,3.06-.25,5.43-.46,7.11-.62.22-.02.56-.07,1.01-.14.45-.07.78-.11,1.01-.14,1.01-.1,1.73.02,2.16.34.43.33.69,1.01.79,2.06.52,5.63.78,8.44,1.31,14.07-1.6.28-3.27.53-5.02.74-1.75.21-3.97.46-6.66.76-2.69.3-4.37.49-5.04.56-2.3.24-3.45.36-5.75.61.06.51.12,1.25.2,2.21.08.97.14,1.7.2,2.21.02.22.04.34.06.56.07.1.11.29.14.55,6.23-1.11,11.53-1.86,15.87-2.28,1.3-.13,2.47-.14,3.5-.05,1.03.09,1.56.33,1.59.7.5,5.37.76,8.06,1.26,13.43.11,1.18-.05,1.99-.48,2.44-.43.45-1.13.72-2.12.81-.22.02-.62.03-1.2.03-.58,0-1.03.02-1.36.05-5.52.89-10.55,1.63-15.1,2.21.18,1.63.49,4.09.92,7.37.44,3.28.75,5.74.92,7.37.22,1.99.32,2.99.54,4.98.08.78.06,1.3-.07,1.57-.13.27-.56.56-1.15.67-2.34.45-6.4.73-11.44,1.38-5.05.65-10.18,1.95-11.43,1.48-.19-.07-.48-.62-.68-.97-.2-.36-.35-.67-.47-.96-.12-.28-.23-.68-.34-1.2-.11-.52-.18-.89-.22-1.11-.04-.22-.1-.66-.17-1.3-.07-.64-.11-1.04-.13-1.2Z"/>
          <path class="cls-4" d="M178.93,170.86c-.57.62-1.8,1.03-3.7,1.23-1.9.2-4.24.29-7.03.28-2.79-.01-4.28,0-4.47,0-1.84.11-3.16.16-3.97.15-1.62.1-2.43.15-4.05.25-.61-.15-1.16-1-1.67-2.54-.51-1.54-1.05-3.78-1.64-6.69-.59-2.92-.9-4.47-.94-4.65-.28-2.65-.84-4.38-1.66-5.17-.82-.8-2.25-1.13-4.27-.98-.72.05-1.08.08-1.81.13.56,7.86.84,11.8,1.39,19.66-.03.33-.3.61-.79.87-.5.25-1.22.44-2.17.58-.95.14-1.8.24-2.54.31-.74.07-1.72.14-2.93.2-1.21.07-1.96.11-2.23.13-2.33.18-3.49.28-5.82.47-3.29.27-6.12.84-7.43.72-.32-.03-.79-.28-1.18-.46-1.78-20.01-3.56-40.01-5.34-60.02-.07-.75,1.02-1.23,3.27-1.42,12.26-1.06,24.54-1.97,36.82-2.72,6.4-.23,11.36.96,14.82,3.53,3.47,2.57,5.31,6.37,5.55,11.37.31,6.51-2.85,11.42-9.42,14.8,1.26.31,2.41.77,3.43,1.39,1.03.62,1.89,1.3,2.59,2.03.7.73,1.32,1.62,1.87,2.68.55,1.05.98,2.04,1.3,2.97.32.93.61,2.03.88,3.31.27,1.28.46,2.39.59,3.33.13.94.28,2.06.47,3.35.18,1.3.34,2.32.45,3.07.07,1.42.1,2.13.17,3.55.1.43.38,1.02.84,1.78.46.76.81,1.37.87,1.7.09.46-.07.81-.29.82ZM141.81,129.2c.11,1.61.21,2.81.3,3.58.08.78.31,1.79.67,3.03.37,1.24.84,2.11,1.44,2.61,1.16-.08,2.25-.28,3.27-.59,1.02-.31,2-.77,2.93-1.37.93-.6,1.65-1.45,2.15-2.55.5-1.1.71-2.39.61-3.86-.05-.83-.25-1.56-.6-2.17-.35-.61-.82-1.09-1.43-1.43-.61-.34-1.21-.6-1.79-.79-.59-.19-1.3-.31-2.12-.34-.83-.04-1.48-.06-1.96-.05-.48,0-1.05.03-1.72.08-.4.03-.6.04-1,.07-.41.22-.65.61-.74,1.19s-.09,1.44,0,2.59Z"/>
          <path class="cls-4" d="M184.15,169.01c-.03-.61-.04-.92-.07-1.53-.2-4.6-.43-11.39-.71-20.38-.27-8.99-.51-15.78-.7-20.38-.28-6.68-.43-10.02-.71-16.7,16.4-.68,32.82-1.14,49.23-1.26.05,5.3.07,7.95.12,13.25,0,.08,0,.28,0,.61,0,.32,0,.54,0,.65,0,.11-.01.3-.04.59-.03.28-.07.48-.14.59-.07.11-.17.26-.29.47-.12.2-.27.35-.44.43-.17.08-.39.16-.67.23-.28.07-.58.11-.92.11-.47,0-.7,0-1.17.01-7.22.08-13.8.1-19.74.03-.05.43-.12,1.1-.22,2.01-.1.91-.18,1.7-.23,2.39-.05.69-.07,1.35-.05,2,7.93-.2,11.89-.28,19.82-.37.83,0,1.39.09,1.67.3.28.21.42.56.43,1.05,0,.13-.01.35-.04.65-.03.3-.04.51-.04.65.01,1.29.07,3.2.18,5.73.11,2.53.26,4.54.18,5.73-.03.5-.29.81-.65.81-.16,0-.3-.05-.41-.16-8.68.52-15.1.88-19.27.98-.43.01-.64.02-1.07.03.06,2.33.09,3.49.15,5.81,2.43-.06,5.95-.25,10.56-.55,4.6-.3,8.06-.44,10.36-.47,1.81-.02,2.85.35,3.13,1.1,0,1.23.01,1.84.02,3.07.01,1.29.05,3.2.13,5.73.07,2.53.12,4.44.13,5.73.01,1.35-.52,2.02-1.6,2.03-1.41.01-3.57.02-6.49.03-2.92.01-5.13.04-6.65.07-3.89.07-9.46.29-16.69.71-7.23.42-12.46.75-15.7.91-.48-.5-.71-.75-1.19-1.24-.14-.75-.22-1.23-.22-1.45Z"/>
          <path class="cls-4" d="M237.92,169.37c-.03-7.3-.05-10.95-.08-18.25-.1-12.73.2-25.48.51-38.21,0-1.32,0-1.99-.01-3.31,0-.59.11-.94.33-1.05,9.7-.05,19.41.02,29.11.19.28,0,.84,1.04,1.66,3.1.82,2.06,1.81,4.71,2.97,7.95,1.15,3.24,1.96,5.47,2.44,6.69,2.21,5.96,3.31,8.94,5.47,14.91.16-6.27.24-9.4.4-15.66.03-1.35.13-3.82.3-7.41.16-3.59.24-6.41.28-8.42.01-.75,2.28-1.08,6.8-.94,1.41.04,3.34.13,5.79.27,2.45.14,3.96.22,4.52.24,1.29.05,1.93.07,3.21.12.45.02.67.11.67.27-.2,10.71-.63,21.42-1.04,32.13-.38,9.33-.75,18.67-1.13,28-.22.69-1.09,1.01-2.63.95-.42-.02-.63-.02-1.05-.04-1.4-.05-3.47-.1-6.2-.14-2.73-.04-4.8-.07-6.2-.11-4.76-.14-7.15-.2-11.91-.29-.38-.14-1.13-1.86-2.26-5.13-1.21-3.54-3.02-8.68-5.47-15.4-2.45-6.71-3.85-10.46-4.15-11.24-.02,1.59-.06,3.96-.12,7.11-.06,3.15-.1,5.52-.12,7.11-.01,1.18,0,2.96.02,5.33.03,2.37.03,4.15.02,5.33-.02,2.04-.04,3.05-.06,5.09-.01,1.24-.56,1.85-1.64,1.84-7.46-.08-11.18-.09-18.64-.07-.71-.39-1.07-.58-1.79-.96Z"/>
          <path class="cls-4" d="M306.49,169.95c.02-.52.03-.77.06-1.29.1-2.31.27-5.04.49-8.18.22-3.14.44-4.74.5-4.71.02.01.44-.42,1.25-1.36.81-.93,2.32-2.63,4.54-5.08,2.22-2.45,4.54-4.97,6.94-7.57,5.14-5.48,7.73-8.21,12.97-13.65-2.53-.16-6.27-.34-11.2-.53-4.93-.19-9.02-.06-11.2-.44-.37-.06-.67-.35-.79-.66s-.15-.75-.13-1.32c.09-1.94.13-2.9.22-4.84.01-.27,0-1.24-.03-2.91-.04-1.67-.03-2.97,0-3.88.1-2.15.43-3.21.99-3.19,13.98.64,27.96,1.38,41.93,2.22,3.58.27,5.37.41,8.95.7,1.63.13,2.62.35,2.96.65.34.3.45,1.2.33,2.7-.03.38-.1.85-.2,1.42-.1.57-.16.9-.17.98,0,.1-.01.14-.02.24-.2,2.33-.52,4.41-.96,6.22-.45,1.81-.91,3.3-1.38,4.46-.47,1.16-1.2,2.35-2.18,3.57-.98,1.22-1.83,2.17-2.55,2.85-.72.68-1.85,1.72-3.37,3.1-1.52,1.38-2.78,2.56-3.77,3.54-5.21,5.18-7.79,7.78-12.91,13.01,9.44.63,14.15.98,23.58,1.77.3.02.53.25.68.69.16.43.24,1.09.25,1.99,0,.89-.01,1.65-.05,2.29-.04.63-.11,1.54-.21,2.72-.12,1.48-.19,2.22-.31,3.7-.02.24-.03.72-.04,1.44,0,.72-.02,1.26-.06,1.64-.1,1.23-.39,2.01-.85,2.32-.46.31-1.28.42-2.47.32-.39-.03-.58-.05-.97-.08-5.28-.43-13.17-.97-23.65-1.48-10.49-.51-18.36-.83-23.62-1.08-.92-.04-1.57-.19-1.97-.46-.39-.26-.92-.87-1.58-1.81Z"/>
          <path class="cls-4" d="M434.65,122.7c-2.21,3.13-6.3,8.73-12.16,16.86-5.86,8.12-10.24,14.51-13.21,19.12-.94,8.02-1.41,12.03-2.36,20.05-.19.44-.4.75-.64.92-.24.18-.61.23-1.12.17-2.53-.29-6.29-.7-11.28-1.18-4.99-.49-8.82-.85-11.49-1.11-.87-1.06-1.34-2.37-1.12-3.52.1-.54.3-1.24.4-1.99.1-.75.2-1.7.28-2.85.09-1.15.15-1.89.18-2.21.11-1.16.17-1.74.29-2.89.63-6.4-.16-12.3-2.42-17.68-.33-.87-.68-1.78-1.05-2.74-.37-.95-.72-1.88-1.05-2.78-.33-.9-.68-1.81-1.04-2.73-.36-.92-.72-1.85-1.06-2.77-.35-.92-.69-1.83-1.03-2.73-.34-.9-.7-1.82-1.07-2.77-.38-.95-.75-1.86-1.12-2.74-2.45-4.87-3.68-7.31-6.18-12.17.03-.35.35-.64.97-.89.62-.24,1.22-.34,1.81-.29,4.25.37,6.38.56,10.63.96,1.46.14,3.66.36,6.6.67,2.93.32,5.23.47,6.55.7.37.06.78.53,1.19,1.3.4.77.8,1.8,1.19,3.09.39,1.29.76,2.64,1.12,4.08s.7,3,1.02,4.72c.32,1.71.61,3.22.84,4.52s.47,2.62.71,3.98c.23,1.35.38,2.23.45,2.65,4.06-9.08,6.12-13.61,10.27-22.66,9.5,1.09,14.25,1.67,23.73,2.91.39.11.66.3.82.58.16.28.28.76.36,1.45Z"/>
          <path class="cls-2" d="M35.95,87.61c-1.37,0-2.72-.06-4.01-.19-3.42-.33-6.41-1.01-8.88-2.02-2.49-1.01-4.79-2.37-6.85-4.04-2.05-1.67-3.78-3.47-5.14-5.35-1.36-1.87-2.56-3.99-3.58-6.3-1.01-2.3-1.81-4.49-2.35-6.52-.55-2.03-1-4.18-1.36-6.41l-.56-3.51c-.34-4.14.14-7.97,1.41-11.44,1.27-3.48,3.07-6.45,5.33-8.82,2.24-2.34,4.93-4.43,8-6.2,3.06-1.76,6.13-3.13,9.15-4.06,2.99-.93,6.05-1.61,9.09-2.02,2.6-.35,5.09-.53,7.42-.53,2.04,0,4.01.14,5.84.41,3.94.58,7.29,1.72,9.96,3.38,2.65,1.65,4.84,3.69,6.51,6.07,1.65,2.36,2.86,5.11,3.59,8.18,0,.04.02.08.02.12l.44,3.85c.17,1.52-1.35,2.43-10.46,3.54-1.54.19-3.68.42-6.42.71-2.72.29-4.51.49-5.36.6-.13.02-.32.05-.57.11-.33.07-.58.12-.75.14s-.33.03-.49.03c-.88,0-1.66-.34-2.24-.99-.57-.63-1.01-1.43-1.29-2.38-.23-.78-.5-1.57-.79-2.35-.23-.62-.6-1.1-1.13-1.48-.36-.26-.8-.38-1.35-.38-.18,0-.36.01-.56.04-.93.13-1.73.37-2.37.74-.59.33-1.02.77-1.31,1.35-.35.68-.62,1.37-.82,2.05-.19.64-.27,1.48-.25,2.49.02,1.1.06,2.03.12,2.77.06.76.16,1.77.31,3.02.09.78.16,1.43.21,1.96.03.33.06.61.09.83.04.32.1.93.16,1.82.06.83.12,1.51.19,2.02.55,3.93,1.96,8.62,5.55,8.62h0c.17,0,.34,0,.52-.03.73-.08,1.32-.41,1.74-.98.48-.66.77-1.33.88-2.06.14-.9.31-1.87.5-2.86.23-1.17.56-2,1.01-2.53.16-.19.39-.31.63-.35,9.57-1.26,14.25-1.83,23.87-2.95.04,0,.16,0,.2,0,1.4,0,2.37.81,2.65,2.22.01.07.02.14.02.21-.04,4.18-.81,8.03-2.3,11.44-1.49,3.41-3.6,6.34-6.26,8.71-2.63,2.34-5.75,4.27-9.26,5.75-3.48,1.47-7.41,2.5-11.67,3.08-2.46.33-4.84.5-7.07.5Z"/>
          <path class="cls-2" d="M106.56,79.31c-1.93,0-3.8-.11-5.57-.33-3.29-.4-6.2-1.1-8.66-2.07-2.48-.98-4.76-2.25-6.8-3.8-2.04-1.55-3.78-3.25-5.17-5.05-1.39-1.8-2.61-3.81-3.62-5.98-1.01-2.16-1.8-4.32-2.35-6.42-.55-2.09-.96-4.29-1.21-6.51l-.49-4.42c-.13-3.97.41-7.65,1.62-11.01,1.21-3.37,2.94-6.32,5.14-8.76,2.18-2.43,4.81-4.58,7.82-6.4,3-1.81,6.23-3.23,9.62-4.25,3.37-1.01,6.93-1.68,10.59-2,1.22-.11,2.5-.16,3.79-.16.85,0,1.72.02,2.59.07,2.21.12,4.6.41,7.08.87,2.53.47,5.01,1.27,7.38,2.38,2.39,1.13,4.44,2.55,6.07,4.22,3.24,3.08,5.71,6.47,7.33,10.06,1.57,3.49,2.53,7.56,2.85,12.08.66,9.28-1.09,17.02-5.19,23l-1.75,2.55c-1.61,2.38-4.02,4.47-7.16,6.22-3.07,1.71-6.22,2.99-9.35,3.82-3.11.82-6.31,1.38-9.52,1.66-1.72.15-3.41.23-5.03.23ZM108.79,30.55c-.26,0-.53.01-.8.04-1.05.09-1.98.4-2.76.9-.81.52-1.45,1.13-1.92,1.8-.47.68-.86,1.6-1.16,2.75-.32,1.21-.53,2.31-.64,3.25-.11.95-.16,2.17-.13,3.62.02,1.48.06,2.63.12,3.42.06.81.15,1.86.27,3.14.11,1.2.27,2.35.47,3.41.19,1.04.51,2.15.95,3.31.42,1.13.92,2.1,1.49,2.9.53.75,1.24,1.36,2.11,1.83.77.41,1.59.62,2.45.62.12,0,.23,0,.35-.01,1.07-.07,2.1-.34,2.98-.78.84-.42,1.54-.92,2.08-1.49.52-.56.96-1.31,1.29-2.23.36-1,.63-1.97.78-2.86.16-.9.25-2.04.26-3.39.02-1.38,0-2.58-.06-3.56-.05-1-.14-2.26-.27-3.78-.09-1.09-.21-2.12-.36-3.05-.15-.93-.36-1.98-.63-3.12-.25-1.07-.6-2-1.05-2.78-.45-.8-.99-1.55-1.6-2.24-.54-.61-1.24-1.06-2.08-1.35-.65-.22-1.38-.34-2.17-.34Z"/>
          <path class="cls-2" d="M181.64,74.45c-2.88,0-5.63-.22-8.17-.66-3.26-.56-6.14-1.4-8.54-2.49-2.42-1.1-4.64-2.48-6.6-4.12-1.96-1.65-3.61-3.43-4.92-5.3-1.3-1.86-2.42-3.93-3.32-6.15-.9-2.21-1.59-4.4-2.04-6.52-.45-2.12-.75-4.33-.89-6.56l-.28-4.43c.06-3.98.78-7.62,2.15-10.91,1.37-3.3,3.24-6.16,5.55-8.5,2.29-2.32,5.02-4.34,8.11-6.01,3.08-1.66,6.38-2.93,9.8-3.77,3.41-.84,7-1.34,10.67-1.48.53-.02,1.07-.03,1.61-.03,1.53,0,3.13.08,4.76.25,2.21.23,4.57.63,7.02,1.21,2.5.59,4.94,1.51,7.25,2.74,2.33,1.24,4.31,2.76,5.86,4.51,3.08,3.23,5.39,6.74,6.83,10.4,1.4,3.57,2.16,7.67,2.26,12.2.2,9.3-1.91,16.94-6.29,22.72l-1.87,2.46c-1.72,2.3-4.23,4.27-7.45,5.86-3.15,1.56-6.35,2.69-9.52,3.36-3.14.67-6.37,1.07-9.59,1.2-.81.03-1.61.05-2.4.05ZM182.81,25.79c-1.05.04-1.99.3-2.79.77-.83.48-1.5,1.06-2,1.7-.5.66-.94,1.56-1.3,2.69-.38,1.19-.64,2.27-.8,3.21-.16.95-.26,2.16-.31,3.6-.05,1.47-.06,2.62-.04,3.42.02.82.06,1.87.12,3.15.05,1.2.16,2.35.31,3.43.15,1.05.41,2.18.78,3.35.36,1.15.82,2.15,1.35,2.97.5.77,1.17,1.42,2.02,1.93.81.49,1.73.75,2.67.75,1.16-.02,2.21-.24,3.11-.64.86-.38,1.59-.84,2.15-1.39.55-.53,1.02-1.26,1.4-2.17.41-.98.72-1.93.92-2.82.2-.89.35-2.03.43-3.37.08-1.39.12-2.58.12-3.56,0-1-.03-2.26-.08-3.79-.04-1.09-.11-2.13-.21-3.07-.1-.94-.27-2-.48-3.14-.2-1.08-.51-2.03-.91-2.83-.41-.82-.92-1.6-1.49-2.31-.52-.64-1.18-1.12-2.01-1.45-.75-.3-1.62-.45-2.57-.45-.12,0-.25,0-.38,0Z"/>
          <path class="cls-2" d="M293.83,72.58c-11.19-.37-16.65-.51-27.84-.67-.36,0-.7-.21-.87-.53-4.31-8.11-6.69-12.52-10.67-19.77-.06.93-.11,1.97-.15,3.13-.1,2.81-.19,4.69-.25,5.6l-.05,9.43c0,.07,0,.18-.02.25-.43,1.97-3.49,2.22-6.1,2.22-2.06,0-3.77,0-5.36,0-4.4,0-7.89.02-13.81.08,0,0-.1,0-.11,0-.71,0-1.27-.07-1.69-.22-.55-.2-.93-.46-1.16-.82-.11-.17-.3-.51-.56-1-.07-.14-.11-.29-.11-.45l-.69-57.42c0-.62,0-1.07,0-1.35.01-.33.07-.7.17-1.13.14-.59.4-1.04.78-1.33.29-.23.67-.41,1.15-.56.46-.14,1-.21,1.64-.22,6.11-.06,9.6-.08,14.37-.08h4.18c5.07.01,6.4.7,6.99,1.29.33.34.51.75.51,1.2,0,0,0,.1,0,.1-.13,7.48-.23,13.62-.28,18.31,3.9-7.25,6.4-11.8,10.93-19.95.18-.32.51-.51.87-.51h.02c3.74.07,5.62.11,9.36.2,18.69.37,19.41,1.14,19.8,1.55.18.19.31.52.3.79-.01.4-.22.74-.53.94-6.02,9.04-12.03,18.08-18.04,27.12v.26s1.29.79,1.29.79c.14.08.25.2.34.34,5.89,9.78,11.79,19.72,17.53,29.55.1.16.14.35.14.54-.03.77-.5,1.47-1.46,2.16-.17.12-.37.19-.58.19-.01,0-.02,0-.03,0Z"/>
          <path class="cls-2" d="M326.01,74.25c-9.29-.52-18.71-.95-27.99-1.28-.27,0-.52-.13-.7-.32-.18-.2-.28-.46-.26-.73.32-6.26.74-11.19,1.04-14.8.08-.89.14-1.7.2-2.4.91-11.37,1.54-23.56,1.8-34.31.03-1.18.01-2.23,0-3.12,0-.76-.02-1.41,0-1.91l.04-1.16c-.08-1.19-.1-2.19-.07-2.96.02-.58.26-1.42,1.3-2.13.17-.11.37-.18.57-.18.03,0,.07,0,.1,0,4.38.45,11.11.9,22.51,1.49,1.68.09,2.95.13,3.87.13.4,0,.72,0,.99-.02.02,0,.04,0,.06,0,.26,0,.52.1.7.29.2.2.31.48.29.77l-3.39,61.69c-.01.27-.13.51-.33.69-.18.16-.42.25-.67.25-.02,0-.04,0-.06,0Z"/>
          <path class="cls-2" d="M400.39,79.83c-.31,0-.65-.02-1.02-.06l-1.12-.12c-1.61-.17-3.89-.37-6.6-.59-2.92-.24-5.14-.42-6.64-.56-5.08-.48-7.63-.71-12.71-1.15-.11,0-.21-.04-.31-.08-.6-.26-1.14-.84-2.64-5.92-.94-3.17-2.54-8.48-4.85-15.74-.87-2.74-1.59-4.99-2.16-6.77-.06.66-.12,1.37-.18,2.12-.27,3.13-.47,5.49-.59,7.07-.09,1.18-.2,2.94-.32,5.3-.12,2.38-.24,4.16-.33,5.35l-.39,5.07c-.13,1.66-1.12,2.65-2.65,2.65-.1,0-.2,0-.3-.01-8.01-.61-11.92-.88-19.91-1.38-.16,0-.31-.06-.45-.14l-1.78-1.05c-.32-.19-.58-.59-.56-.96l1.12-18.22c.75-12.95,1.93-25.74,3.07-38.12l.2-3.28c.06-1.02.43-1.66,1.07-1.9.11-.04.23-.06.35-.06.02,0,.04,0,.06,0,10.3.63,20.75,1.39,31.05,2.25.78.06,1.28.62,2.43,3.87.76,2.15,1.65,4.9,2.67,8.19,1.1,3.56,1.76,5.66,2.16,6.83,1.41,4.34,2.31,7.14,3.4,10.57l.98-10.67c.12-1.32.38-3.73.79-7.39.43-3.79.69-6.63.83-8.35.14-1.62,2.59-1.62,3.91-1.62,1.17,0,2.68.09,4.49.26,1.59.15,3.67.39,6.19.69,2.6.31,4.19.51,4.79.57l3.42.36c1.54.16,1.62,1.04,1.58,1.42-.8,9.6-1.81,19.36-2.8,28.79l-.33,3.2-2.97,27.87c0,.09-.03.19-.07.27-.39.95-1.36,1.43-2.88,1.43Z"/>
          <path class="cls-2" d="M467.9,88.7c-5.67-.02-10.22-.28-13.92-.81l-1.12-.16c-.78-.11-1.97-.22-3.53-.33-1.44-.1-2.58-.22-3.38-.31l-.26-.03c-8.68-.92-20.47-5.46-26.21-12.38-5.67-6.82-7.97-15.44-6.83-25.6.42-3.78,1.29-7.24,2.59-10.28,1.3-3.06,2.9-5.65,4.74-7.69,1.84-2.03,4.01-3.79,6.44-5.24,2.42-1.44,4.92-2.54,7.41-3.28,2.48-.73,5.14-1.26,7.91-1.57,2.18-.24,4.27-.36,6.21-.36.52,0,1.04,0,1.54.03,2.37.08,4.77.29,7.16.62,1.75.24,3.49.55,5.15.93,1.67.37,3.55.89,5.59,1.52,2.09.65,4.04,1.49,5.8,2.48,1.75.99,3.42,2.14,4.96,3.42,1.59,1.33,2.92,2.95,3.95,4.82,1.03,1.88,1.67,3.95,1.91,6.15.03.91-.01,3.19-.14,6.82,0,.09-.02.18-.04.27-.22.71-.88,1.56-2.74,1.56-.41,0-.87-.04-1.38-.12-2.48-.39-6.07-.99-11.04-1.84-2.01-.34-3.89-.6-5.54-.82-2.35-.32-4.2-.57-5.44-.93-.56-.17-1.08-.65-1.38-1.3-.21-.46-.34-.96-.37-1.46-.02-.33-.07-.69-.16-1.08-.08-.36-.2-.68-.36-.96-.05-.09-.22-.32-.8-.62-.5-.26-1.17-.45-2-.56-.45-.06-.89-.09-1.3-.09-.61,0-1.19.07-1.73.2-.91.23-1.67.55-2.26.95-.58.4-1.12,1-1.62,1.78-.54.85-.96,1.64-1.27,2.35-.3.7-.58,1.63-.85,2.77-.27,1.16-.46,2.09-.56,2.76-.1.69-.23,1.6-.38,2.74-.04.33-.08.74-.12,1.23-.04.54-.07.91-.1,1.1l-.16,1.2c-.11.84-.18,1.53-.23,2.08-.04.53-.05,1.23-.04,2.1.01.82.09,1.52.23,2.07.14.56.37,1.18.7,1.86.3.61.7,1.12,1.18,1.53.52.44,1.22.85,2.08,1.22.86.38,1.88.65,3.04.8,1.9.26,3.62.39,5.11.39.68,0,1.32-.03,1.92-.08l.45-3.12-.58-.08c-.08.02-.17.04-.25.04-.04,0-.07,0-.11,0l-3.14-.44c-.22-.03-.63-.07-1.21-.13-.62-.06-1.12-.11-1.51-.17-.27-.04-.51-.18-.67-.39l-1.36-1.81c-.16-.21-.23-.47-.19-.73l1.5-11.04c.14-1.03.93-1.94,2.4-2.76.15-.08.32-.13.49-.13.04,0,.09,0,.14,0l3.18.44c2.3.32,5.01.73,8.04,1.22,3.13.51,5.54.89,7.21,1.14l3.53.53c1.72.26,3.05.48,4.01.66,1,.18,2.11.49,3.29.92.96.35,2.61,1.08,2.82,2.13.33,1.71-.39,4.97-1.31,9.1-.44,1.98-.94,4.23-1.36,6.47-1.21,6.56-2.07,11.42-2.55,14.45,0,.05,0,.12,0,.22,0,.24-.01.44-.03.59l-.14.88c-.04.25-.17.47-.37.63-.9.71-2.88,1.53-10.28,1.53h-.34Z"/>
          <path class="cls-2" d="M69.97,182.57c-.49,0-.86-.05-1.16-.17-.49-.19-.78-.66-1.16-1.36-.25-.46-.42-.81-.55-1.12-.14-.34-.27-.8-.39-1.38-.11-.52-.18-.9-.23-1.13-.04-.24-.1-.7-.18-1.38-.07-.63-.11-1.02-.13-1.18l-6.8-53.53c-.05-.42.07-.84.34-1.2.54-.69,1.78-1.48,6.92-2.1.48-.06,1.18-.13,2.08-.21.87-.08,1.47-.14,1.81-.18,2.22-.26,5.51-.7,9.89-1.27,5.08-.67,8.23-1.03,9.98-1.21,1.67-.18,4.06-.4,6.92-.63,3.05-.25,5.42-.46,7.1-.62.21-.02.53-.06.95-.13.48-.07.83-.12,1.07-.14.26-.02.51-.04.74-.04.91,0,1.6.19,2.12.58.67.51,1.05,1.41,1.18,2.76l1.31,14.07c.05.52-.31.99-.82,1.08-1.6.28-3.3.54-5.08.75-1.75.21-3.97.46-6.67.76l-1.52.17c-1.82.2-2.99.33-3.52.39-1.95.2-3.07.32-4.76.51.03.36.07.78.1,1.25.08.95.14,1.68.19,2.18v.07c5.7-.99,10.74-1.71,14.99-2.12.78-.08,1.53-.11,2.22-.11.51,0,1,.02,1.46.06.59.05,2.37.21,2.5,1.61l1.26,13.43c.14,1.5-.1,2.55-.75,3.22-.6.63-1.5.99-2.74,1.11-.24.02-.67.04-1.29.04-.54,0-.96.02-1.27.05-5.25.85-9.89,1.53-14.1,2.08.18,1.56.45,3.66.81,6.37.44,3.28.75,5.77.93,7.4l.54,4.98c.11,1,.06,1.66-.17,2.12-.3.59-.99,1.05-1.86,1.21-1.38.27-3.27.47-5.67.72-1.73.18-3.69.39-5.83.67-1.83.24-3.71.56-5.36.85-2.25.39-4.19.73-5.4.73Z"/>
          <path class="cls-2" d="M121.65,176.82c-.19,0-.37,0-.53-.02-.43-.04-.86-.25-1.27-.44l-.23-.11c-.33-.15-.55-.46-.58-.82l-5.34-60.02c-.04-.46.1-.89.4-1.24.58-.7,1.75-1.09,3.79-1.26,12.18-1.06,24.58-1.97,36.85-2.73.56-.02,1.08-.03,1.59-.03,5.85,0,10.53,1.27,13.89,3.76,3.7,2.74,5.7,6.82,5.95,12.13.29,6.18-2.39,11.08-7.98,14.61.53.23,1.03.49,1.51.77,1.1.66,2.04,1.4,2.8,2.2.76.8,1.45,1.78,2.03,2.91.57,1.09,1.02,2.13,1.36,3.1.33.97.64,2.12.91,3.43.27,1.29.47,2.43.6,3.4.13.94.28,2.05.47,3.35.18,1.29.33,2.31.45,3.06,0,.04,0,.07.01.11l.16,3.44c.07.22.24.65.7,1.42.56.93.9,1.53,1,2.03.11.58,0,1.14-.3,1.52-.12.15-.26.27-.42.35-.79.71-2.11,1.14-4.14,1.36-1.81.19-4.06.29-6.7.29h-2.88c-1.17,0-1.82,0-1.96,0-1.81.1-3.09.15-3.92.15h-.11c-1.55.1-4.02.25-4.04.25-.08,0-.16,0-.24-.03-.99-.25-1.74-1.26-2.38-3.2-.52-1.57-1.08-3.86-1.67-6.81-.58-2.91-.9-4.46-.94-4.65-.35-3.25-1.01-4.3-1.37-4.66-.5-.49-1.41-.74-2.71-.74-.25,0-.52,0-.8.03l-.81.06,1.32,18.66c0,.06,0,.11,0,.17-.05.47-.31,1.14-1.33,1.66-.6.3-1.42.53-2.48.68-.97.14-1.83.24-2.59.32-.75.07-1.74.14-2.97.2-1.2.07-1.94.11-2.2.13-2.33.18-3.49.28-5.82.47-1.34.11-2.61.27-3.74.42-1.34.17-2.5.32-3.34.32ZM142.92,126.4c-.04.06-.09.17-.12.36-.05.34-.09,1.03,0,2.37.11,1.59.21,2.78.29,3.55.08.71.29,1.67.64,2.85.28.96.6,1.53.86,1.86.91-.09,1.79-.26,2.6-.51.93-.28,1.83-.71,2.68-1.25.78-.5,1.36-1.19,1.78-2.12.43-.94.61-2.08.52-3.38-.04-.68-.2-1.26-.47-1.74-.26-.45-.6-.79-1.05-1.04-.55-.31-1.09-.55-1.62-.72-.5-.16-1.13-.26-1.86-.3-.71-.03-1.29-.05-1.74-.05h-.17c-.46,0-1.01.03-1.66.08l-.7.05Z"/>
          <path class="cls-2" d="M185.57,172.7c-.27,0-.53-.11-.72-.31l-1.19-1.24c-.13-.14-.22-.32-.26-.51-.2-1.06-.23-1.42-.24-1.59l-.07-1.53c-.2-4.66-.44-11.52-.71-20.39-.28-9.15-.51-15.82-.7-20.37l-.71-16.7c-.01-.27.08-.52.26-.72s.43-.31.69-.32c17.6-.73,33.71-1.14,49.27-1.26h0c.55,0,1,.44,1,.99l.13,14.5c0,.12-.01.35-.04.68-.04.46-.13.78-.29,1.03-.07.11-.16.26-.28.45-.22.37-.51.64-.84.8-.24.12-.53.22-.87.3-.35.09-.74.14-1.15.14h-1.17c-4.48.06-8.45.09-12.14.09-2.32,0-4.56,0-6.72-.03-.04.32-.08.69-.12,1.11-.1.89-.18,1.68-.23,2.35-.02.3-.04.6-.05.9,7.28-.18,11.17-.25,18.8-.34h.12c1.02,0,1.71.16,2.17.51.37.28.81.83.82,1.83,0,.15-.01.4-.04.74-.02.26-.03.44-.03.56.01,1.27.07,3.14.18,5.7.03.67.06,1.31.09,1.9.08,1.68.15,3.01.09,3.94-.07,1.02-.74,1.74-1.64,1.75-.25,0-.48-.05-.68-.14-8.66.52-14.87.87-18.99.97h-.07s.1,3.81.1,3.81c2.23-.08,5.3-.25,9.52-.52,4.39-.28,7.99-.44,10.41-.47h.15c.81,0,3.28,0,3.93,1.75.04.11.06.22.06.34l.02,3.07c.01,1.29.05,3.19.13,5.71.07,2.54.12,4.46.13,5.75.02,1.89-.96,3.03-2.6,3.04-1.11.01-2.7.02-4.76.03h-1.73c-2.91.02-5.12.05-6.63.08-4.3.08-10.05.33-16.65.71l-6.49.38c-3.97.24-7.04.42-9.22.53-.02,0-.03,0-.05,0Z"/>
          <path class="cls-2" d="M297.46,171.95l-1.05-.04c-1.52-.06-3.65-.1-6.18-.14-2.74-.04-4.81-.07-6.22-.11-4.76-.14-7.14-.2-11.9-.29-.12,0-.23-.02-.34-.07-.49-.19-1-.38-2.84-5.74-1.58-4.61-3.42-9.78-5.46-15.38-.91-2.49-1.68-4.58-2.3-6.25-.01.57-.02,1.17-.04,1.8-.06,3.14-.1,5.51-.12,7.1-.01,1.18,0,2.95.02,5.31.03,2.38.03,4.16.02,5.35l-.06,5.09c-.02,1.77-1,2.83-2.61,2.83-5.61-.06-9.03-.08-13.1-.08-1.67,0-5.57,0-5.57,0-.17,0-.33-.04-.48-.12l-1.78-.96c-.32-.17-.52-.51-.53-.88l-.08-18.25c-.1-13,.23-26.41.51-38.23v-3.28c-.01-.38-.02-1.52.89-1.96.13-.06.28-.1.43-.1,2.05,0,4.09-.01,6.14-.01,7.64,0,15.38.07,22.99.2.81.01,1.32.58,2.57,3.73.84,2.12,1.85,4.8,2.98,7.99,1.27,3.55,1.99,5.55,2.43,6.67,1.52,4.09,2.51,6.77,3.68,9.97l.26-10.38c.03-1.35.13-3.78.3-7.43.14-3.02.23-5.84.28-8.39.03-1.63,2.3-1.95,5.95-1.95.58,0,1.2,0,1.88.03,1.51.05,3.47.14,5.82.27,2.44.14,3.94.22,4.5.24l3.21.12c1.55.06,1.64,1.01,1.63,1.3-.18,9.61-.55,19.39-.91,28.85l-.13,3.28-1.13,28c0,.09-.02.17-.04.26-.34,1.1-1.43,1.66-3.23,1.66-.13,0-.26,0-.39,0Z"/>
          <path class="cls-2" d="M359.08,175.89c-.27,0-.55-.01-.87-.04l-.97-.08c-4.56-.37-12.36-.93-23.62-1.48-6.59-.32-12.15-.57-16.68-.77-2.68-.12-4.99-.22-6.95-.31-1.11-.05-1.92-.25-2.47-.62-.51-.34-1.09-.99-1.85-2.07-.13-.18-.19-.4-.18-.62l.06-1.29c.1-2.31.27-5.07.49-8.21.32-4.48.42-5.41,1.05-5.59.17-.18.48-.52.95-1.06.91-1.05,2.53-2.87,4.55-5.1,2.23-2.45,4.54-4.98,6.95-7.58,4.62-4.93,7.14-7.59,11.47-12.1-2.08-.11-5.02-.25-9.01-.4-1.75-.07-3.4-.09-4.89-.12-2.78-.04-4.97-.08-6.45-.34-.71-.12-1.32-.64-1.56-1.31-.16-.44-.22-1-.18-1.7l.22-4.84c0-.17,0-.79-.04-2.84-.04-1.69-.03-3.02,0-3.95.06-1.35.19-4.14,1.97-4.14,13.65.62,27.76,1.37,42.01,2.22,3.6.27,5.39.41,8.97.7,2.44.2,3.16.56,3.54.89.63.55.83,1.61.67,3.54-.03.4-.1.9-.21,1.52-.09.5-.14.8-.16.9l-.02.2c-.2,2.39-.53,4.54-.99,6.4-.46,1.86-.94,3.4-1.42,4.6-.51,1.25-1.29,2.53-2.33,3.82-1.03,1.27-1.89,2.24-2.64,2.95-.73.69-1.86,1.72-3.39,3.11-1.49,1.35-2.74,2.53-3.74,3.51-4.69,4.67-7.21,7.2-11.38,11.45,8.08.54,12.7.9,21.43,1.62.41.03,1.15.25,1.54,1.34.2.55.3,1.31.3,2.32,0,.9-.01,1.69-.05,2.35-.04.64-.11,1.55-.21,2.74l-.31,3.7c-.02.23-.03.68-.04,1.36,0,.75-.03,1.32-.06,1.71-.13,1.59-.54,2.56-1.28,3.06-.53.36-1.26.53-2.25.53Z"/>
          <path class="cls-2" d="M405.52,180.85c-.15,0-.31,0-.48-.03-2.07-.24-5.71-.64-11.26-1.18l-5.81-.56c-2.27-.22-4.16-.4-5.68-.55-.26-.03-.5-.16-.67-.36-1.11-1.35-1.6-2.94-1.33-4.34.04-.2.09-.42.14-.65.09-.39.19-.83.25-1.29.1-.73.19-1.67.28-2.79.09-1.17.15-1.91.18-2.24l.29-2.9c.62-6.24-.17-12.02-2.35-17.2l-1.06-2.76c-.37-.96-.72-1.89-1.06-2.79-.33-.89-.68-1.8-1.03-2.72-.36-.93-.72-1.86-1.07-2.79l-1.03-2.73c-.34-.89-.69-1.81-1.07-2.76-.37-.94-.75-1.85-1.11-2.71-2.42-4.81-3.65-7.25-6.15-12.11-.09-.17-.12-.35-.11-.54.06-.75.6-1.34,1.59-1.74.63-.25,1.26-.38,1.88-.38.13,0,.26,0,.39.02,4.26.37,6.38.56,10.64.96,1.46.14,3.67.36,6.61.67,1.1.12,2.11.21,3.01.3,1.53.15,2.74.26,3.6.41.71.12,1.33.72,1.9,1.82.43.83.85,1.9,1.26,3.26.4,1.31.78,2.7,1.13,4.12.36,1.46.71,3.07,1.03,4.77.33,1.71.61,3.22.85,4.52.2,1.11.4,2.24.6,3.38,3.21-7.17,5.22-11.58,8.93-19.66.17-.36.52-.58.91-.58.04,0,.08,0,.11,0,9.54,1.09,14.2,1.66,23.75,2.92.05,0,.09.01.13.03.8.22,1.22.69,1.42,1.04.24.41.39.99.49,1.84.03.24-.03.49-.18.69-1.41,2-3.55,4.96-6.51,9.05-1.65,2.28-3.54,4.88-5.65,7.82-5.31,7.37-9.82,13.89-13.06,18.89l-2.33,19.82c-.01.1-.04.19-.07.28-.26.61-.58,1.05-.97,1.33-.35.26-.81.39-1.35.39Z"/>
        </g>
        <g>
          <g>
            <path class="cls-3" d="M71.51,52.12c-.04,4.07-.78,7.75-2.22,11.05-1.44,3.3-3.44,6.08-6.01,8.36-2.56,2.28-5.56,4.13-8.98,5.57-3.43,1.44-7.23,2.44-11.42,3.01-3.9.53-7.52.64-10.84.31-3.33-.33-6.19-.97-8.6-1.95-2.41-.98-4.61-2.27-6.59-3.89-1.99-1.62-3.64-3.34-4.96-5.16-1.32-1.82-2.48-3.86-3.47-6.12-1-2.26-1.76-4.38-2.3-6.38-.54-2-.99-4.1-1.34-6.31-.22-1.4-.33-2.11-.56-3.51-.32-3.93.13-7.58,1.36-10.95,1.23-3.37,2.94-6.19,5.12-8.47,2.18-2.28,4.77-4.29,7.78-6.02,3.01-1.73,5.99-3.06,8.95-3.98,2.95-.92,5.93-1.58,8.92-1.98,4.82-.65,9.15-.68,12.98-.12,3.83.56,7.02,1.65,9.58,3.24,2.56,1.59,4.63,3.52,6.22,5.79,1.59,2.27,2.73,4.88,3.43,7.84.18,1.54.27,2.31.44,3.85.1.86-3.1,1.65-9.59,2.43-1.53.19-3.67.42-6.4.71-2.73.29-4.53.49-5.38.6-.15.02-.37.06-.66.13-.29.07-.51.11-.66.13-.77.1-1.39-.11-1.86-.63-.47-.52-.83-1.19-1.07-2s-.51-1.62-.81-2.42c-.3-.8-.79-1.45-1.48-1.94-.68-.49-1.56-.67-2.63-.53-1.07.14-1.98.43-2.73.86-.76.43-1.32,1.02-1.7,1.76s-.68,1.49-.89,2.22c-.21.74-.31,1.67-.29,2.79.02,1.12.06,2.07.12,2.84.06.77.17,1.79.31,3.06.15,1.27.23,2.22.3,2.79.04.31.1.91.16,1.77.06.86.13,1.56.2,2.09.92,6.64,3.42,9.87,7.18,9.45,1.02-.11,1.86-.6,2.43-1.39.58-.78.93-1.62,1.07-2.5.13-.89.3-1.83.49-2.82.2-.99.46-1.68.8-2.08,9.54-1.25,14.31-1.84,23.86-2.94.97-.03,1.56.44,1.76,1.42Z"/>
            <path class="cls-3" d="M74.17,43.04c-.2-1.77-.3-2.65-.49-4.41-.12-3.78.4-7.3,1.57-10.56,1.17-3.26,2.82-6.07,4.94-8.43,2.12-2.36,4.65-4.43,7.59-6.21,2.94-1.77,6.07-3.15,9.39-4.14,3.32-.99,6.78-1.64,10.39-1.96,1.99-.17,4.07-.2,6.24-.09,2.18.12,4.49.4,6.95.85,2.46.45,4.84,1.22,7.13,2.31,2.3,1.08,4.23,2.42,5.78,4.01,3.19,3.04,5.57,6.3,7.13,9.77,1.56,3.47,2.46,7.41,2.77,11.74.64,9.03-1.01,16.52-5.01,22.36-.7,1.02-1.05,1.53-1.75,2.55-1.53,2.27-3.8,4.24-6.82,5.91-3.01,1.67-6.05,2.91-9.12,3.72-3.07.81-6.19,1.35-9.36,1.63-3.72.33-7.18.3-10.39-.09-3.21-.39-6.01-1.06-8.41-2.01-2.4-.95-4.59-2.17-6.56-3.67-1.97-1.5-3.64-3.12-4.99-4.87-1.35-1.75-2.52-3.68-3.51-5.79-.99-2.11-1.75-4.19-2.29-6.25-.54-2.05-.93-4.18-1.18-6.37ZM107.9,23.59c-1.22.11-2.29.46-3.21,1.06-.92.6-1.65,1.29-2.19,2.07-.54.78-.98,1.8-1.31,3.06-.33,1.26-.55,2.39-.67,3.39-.12,1-.16,2.25-.14,3.74.02,1.5.06,2.66.13,3.48.06.82.15,1.87.28,3.16.12,1.23.28,2.4.49,3.5.21,1.1.54,2.26.99,3.48.45,1.21.99,2.26,1.62,3.13.63.88,1.44,1.58,2.45,2.13,1,.54,2.15.81,3.35.73,1.26-.08,2.4-.41,3.36-.88.96-.47,1.74-1.04,2.36-1.7.62-.66,1.12-1.52,1.5-2.58.38-1.06.66-2.07.83-3.03.17-.96.26-2.14.28-3.55.02-1.41,0-2.61-.06-3.62-.05-1.01-.14-2.28-.27-3.81-.09-1.13-.22-2.17-.37-3.13-.15-.96-.37-2.02-.64-3.19-.28-1.17-.66-2.18-1.15-3.04-.49-.86-1.07-1.67-1.73-2.41-.66-.74-1.5-1.29-2.5-1.63-1-.35-2.13-.46-3.38-.35Z"/>
            <path class="cls-3" d="M148.16,36.58c-.11-1.77-.17-2.66-.28-4.43.06-3.78.75-7.27,2.08-10.47,1.33-3.2,3.11-5.93,5.34-8.18,2.23-2.26,4.85-4.2,7.87-5.83,3.02-1.63,6.21-2.85,9.57-3.68,3.36-.83,6.85-1.31,10.47-1.45,1.99-.08,4.07,0,6.23.21,2.17.22,4.46.62,6.89,1.19,2.43.57,4.77,1.46,7.01,2.65,2.24,1.19,4.1,2.62,5.58,4.29,3.04,3.19,5.25,6.56,6.64,10.1,1.39,3.54,2.1,7.52,2.19,11.86.2,9.05-1.81,16.45-6.09,22.09-.75.99-1.12,1.48-1.87,2.47-1.64,2.19-4,4.05-7.09,5.57-3.09,1.53-6.18,2.62-9.29,3.27-3.1.66-6.24,1.05-9.42,1.18-3.73.15-7.18-.05-10.36-.6-3.18-.55-5.95-1.35-8.3-2.42-2.35-1.06-4.47-2.39-6.37-3.98-1.9-1.59-3.48-3.29-4.74-5.1-1.26-1.81-2.34-3.8-3.22-5.95-.88-2.16-1.54-4.27-1.98-6.35-.44-2.08-.73-4.22-.87-6.42ZM182.77,18.79c-1.22.05-2.31.35-3.26.9-.95.55-1.71,1.2-2.29,1.96-.58.75-1.06,1.75-1.46,2.99-.39,1.24-.67,2.36-.83,3.35-.16.99-.27,2.24-.32,3.73-.05,1.5-.06,2.66-.04,3.48.02.82.06,1.88.12,3.17.06,1.24.16,2.41.31,3.52.15,1.11.43,2.28.82,3.52.39,1.24.88,2.31,1.46,3.21.58.9,1.36,1.65,2.34,2.24.98.59,2.1.92,3.31.89,1.26-.02,2.42-.29,3.39-.72.98-.43,1.79-.96,2.44-1.59.65-.63,1.19-1.46,1.62-2.5.43-1.04.76-2.03.97-2.98.22-.95.37-2.13.45-3.53.08-1.4.12-2.61.12-3.62,0-1.01-.03-2.28-.09-3.82-.04-1.13-.11-2.18-.22-3.14-.11-.97-.27-2.04-.49-3.22-.22-1.18-.55-2.21-1-3.1s-.98-1.72-1.61-2.49c-.62-.77-1.43-1.36-2.41-1.75-.99-.39-2.11-.57-3.36-.52Z"/>
            <path class="cls-3" d="M228.68,65.31c-.64,0-1.12-.05-1.46-.17-.33-.12-.55-.26-.66-.42-.1-.16-.27-.47-.51-.92-.23-19.14-.46-38.28-.68-57.42,0-.59,0-1.02,0-1.29.01-.27.06-.59.15-.95.09-.36.23-.62.42-.77.19-.15.47-.28.83-.39.36-.11.81-.17,1.35-.18,7.41-.08,11.12-.09,18.54-.08,4.34,0,6.51.51,6.5,1.48,0,.03,0,.05,0,.08-.18,10.01-.28,17.47-.31,22.37,5.06-9.42,7.63-14.12,12.84-23.5,3.74.07,5.61.11,9.35.2,12.78.26,19.15.77,19.13,1.31,0,.11-.07.16-.19.16-6.13,9.21-12.25,18.42-18.37,27.63,0,.45-.01.68-.02,1.13.72.44,1.08.65,1.79,1.09,5.91,9.81,11.74,19.65,17.52,29.54-.01.43-.36.89-1.04,1.38-11.14-.37-16.72-.51-27.86-.67-4.83-9.09-7.29-13.62-12.27-22.67-.18,1.48-.33,3.63-.44,6.46-.11,2.82-.19,4.68-.25,5.57-.02,3.81-.03,5.72-.06,9.53-.21.97-1.95,1.44-5.22,1.43-7.64-.02-11.46,0-19.09.07Z"/>
            <path class="cls-3" d="M298.05,65.97c.4-7.83.96-13.67,1.24-17.17.88-11.01,1.54-23.34,1.8-34.36.05-2.18-.03-3.93,0-5.01.02-.48.03-.73.04-1.21-.08-1.19-.1-2.16-.07-2.91.02-.51.31-.96.86-1.34,4.93.51,12.45.97,22.56,1.49,2.41.12,4.07.16,4.97.1-1.13,20.56-2.26,41.13-3.39,61.69-9.33-.52-18.67-.95-28.01-1.28Z"/>
            <path class="cls-3" d="M335.86,66.93c.45-7.29.67-10.93,1.12-18.22.74-12.71,1.9-25.41,3.07-38.09.08-1.32.12-1.98.21-3.31.04-.59.18-.93.43-1.03,10.35.63,20.7,1.38,31.03,2.24.3.02.83,1.1,1.57,3.21.74,2.11,1.63,4.83,2.65,8.15,1.02,3.32,1.74,5.6,2.17,6.86,1.98,6.11,2.96,9.16,4.89,15.28.57-6.24.86-9.36,1.43-15.6.12-1.34.39-3.8.79-7.37.4-3.57.67-6.38.84-8.38.06-.75,2.51-.91,7.31-.45,1.5.14,3.56.37,6.16.69,2.61.32,4.21.51,4.81.57,1.37.14,2.05.21,3.42.36.48.05.71.16.69.32-.89,10.68-2.02,21.34-3.13,31.99-.99,9.29-1.98,18.58-2.97,27.87-.28.67-1.23.92-2.88.75-.45-.05-.67-.07-1.12-.12-1.5-.16-3.71-.36-6.62-.59-2.92-.24-5.13-.42-6.63-.56-5.09-.48-7.63-.71-12.72-1.15-.39-.17-1.09-1.94-2.08-5.28-1.07-3.62-2.67-8.88-4.86-15.76-2.19-6.87-3.44-10.71-3.7-11.51-.12,1.58-.32,3.94-.59,7.08-.27,3.14-.47,5.5-.59,7.08-.09,1.18-.2,2.96-.32,5.32-.12,2.37-.23,4.14-.32,5.32-.16,2.03-.24,3.04-.39,5.07-.1,1.23-.72,1.81-1.88,1.72-7.97-.61-11.95-.88-19.93-1.39-.74-.43-1.11-.65-1.85-1.09Z"/>
            <path class="cls-3" d="M413.66,43.2c.41-3.69,1.25-7.03,2.51-10,1.26-2.97,2.78-5.44,4.56-7.41,1.78-1.96,3.85-3.65,6.21-5.05,2.36-1.4,4.76-2.46,7.18-3.18,2.43-.72,5.01-1.23,7.74-1.53,2.73-.3,5.27-.41,7.6-.33,2.34.08,4.69.28,7.06.61,1.74.24,3.43.54,5.07.91,1.64.37,3.48.87,5.51,1.5,2.03.63,3.9,1.43,5.6,2.39,1.7.96,3.31,2.07,4.81,3.32,1.5,1.25,2.74,2.76,3.71,4.53.97,1.77,1.57,3.7,1.79,5.78.03.79-.02,3.02-.14,6.68-.24.78-1.25,1.03-3.02.75-2.53-.39-6.21-1.01-11.03-1.84-4.82-.82-8.86-1.14-10.86-1.73-.31-.09-.59-.41-.75-.76-.16-.35-.25-.71-.28-1.1-.02-.38-.08-.8-.19-1.25-.1-.45-.26-.86-.46-1.23-.2-.37-.61-.71-1.22-1.02-.61-.31-1.38-.54-2.33-.67-1.24-.17-2.38-.13-3.41.13-1.03.26-1.89.62-2.59,1.1-.7.48-1.33,1.17-1.9,2.07-.57.9-1.02,1.73-1.34,2.49-.32.76-.63,1.74-.9,2.94-.28,1.2-.47,2.15-.57,2.84-.11.69-.23,1.61-.38,2.76-.05.35-.09.78-.12,1.29-.04.51-.07.86-.09,1.05-.06.48-.09.72-.16,1.2-.11.86-.19,1.56-.23,2.13-.04.56-.06,1.3-.04,2.19.02.9.1,1.66.26,2.29.15.63.41,1.32.77,2.06.36.74.84,1.36,1.44,1.86.6.5,1.37.96,2.32,1.37.95.41,2.05.71,3.3.88,3.22.44,5.9.52,8.05.23l.69-4.88c-.77-.11-1.15-.16-1.92-.27,0,.03,0,.05-.01.08-1.26-.18-1.89-.27-3.15-.44-.23-.03-.65-.08-1.25-.13-.6-.06-1.09-.11-1.47-.16-.54-.73-.81-1.09-1.36-1.82.6-4.42.9-6.63,1.5-11.04.09-.69.73-1.37,1.89-2.02,1.27.17,1.91.26,3.18.44,2.21.31,4.88.71,8.02,1.22,3.14.51,5.54.89,7.22,1.14,1.41.21,2.12.32,3.53.53,1.7.26,3.03.48,3.98.65.95.17,2,.47,3.13.88,1.14.41,2.1,1,2.17,1.38.45,2.27-1.44,8.55-2.67,15.2-1.23,6.65-2.08,11.47-2.56,14.48-.01.08-.02.21-.02.39,0,.18,0,.32-.02.43-.06.35-.08.53-.14.88-1.15.91-4.48,1.33-9.99,1.31-5.52-.02-10.1-.28-13.78-.8-.45-.06-.67-.1-1.12-.16-.8-.11-2-.23-3.6-.34-1.59-.11-2.81-.25-3.6-.33-8.35-.88-19.88-5.2-25.55-12.02-5.38-6.48-7.73-14.76-6.61-24.84Z"/>
            <path class="cls-3" d="M67.16,168.72c-2.27-17.84-4.53-35.68-6.8-53.52-.12-.91,2.01-1.64,6.39-2.18.48-.06,1.16-.13,2.05-.21.89-.08,1.5-.14,1.84-.18,2.22-.27,5.52-.7,9.9-1.27,4.39-.58,7.7-.97,9.95-1.21,1.55-.16,3.85-.38,6.9-.63,3.06-.25,5.43-.46,7.11-.62.22-.02.56-.07,1.01-.14.45-.07.78-.11,1.01-.14,1.01-.1,1.73.02,2.16.34.43.33.69,1.01.79,2.06.52,5.63.78,8.44,1.31,14.07-1.6.28-3.27.53-5.02.74-1.75.21-3.97.46-6.66.76-2.69.3-4.37.49-5.04.56-2.3.24-3.45.36-5.75.61.06.51.12,1.25.2,2.21.08.97.14,1.7.2,2.21.02.22.04.34.06.56.07.1.11.29.14.55,6.23-1.11,11.53-1.86,15.87-2.28,1.3-.13,2.47-.14,3.5-.05,1.03.09,1.56.33,1.59.7.5,5.37.76,8.06,1.26,13.43.11,1.18-.05,1.99-.48,2.44-.43.45-1.13.72-2.12.81-.22.02-.62.03-1.2.03-.58,0-1.03.02-1.36.05-5.52.89-10.55,1.63-15.1,2.21.18,1.63.49,4.09.92,7.37.44,3.28.75,5.74.92,7.37.22,1.99.32,2.99.54,4.98.08.78.06,1.3-.07,1.57-.13.27-.56.56-1.15.67-2.34.45-6.4.73-11.44,1.38-5.05.65-10.18,1.95-11.43,1.48-.19-.07-.48-.62-.68-.97-.2-.36-.35-.67-.47-.96-.12-.28-.23-.68-.34-1.2-.11-.52-.18-.89-.22-1.11-.04-.22-.1-.66-.17-1.3-.07-.64-.11-1.04-.13-1.2Z"/>
            <path class="cls-3" d="M178.93,164.86c-.57.62-1.8,1.03-3.7,1.23-1.9.2-4.24.29-7.03.28-2.79-.01-4.28,0-4.47,0-1.84.11-3.16.16-3.97.15-1.62.1-2.43.15-4.05.25-.61-.15-1.16-1-1.67-2.54-.51-1.54-1.05-3.78-1.64-6.69-.59-2.92-.9-4.47-.94-4.65-.28-2.65-.84-4.38-1.66-5.17-.82-.8-2.25-1.13-4.27-.98-.72.05-1.08.08-1.81.13.56,7.86.84,11.8,1.39,19.66-.03.33-.3.61-.79.87-.5.25-1.22.44-2.17.58-.95.14-1.8.24-2.54.31-.74.07-1.72.14-2.93.2-1.21.07-1.96.11-2.23.13-2.33.18-3.49.28-5.82.47-3.29.27-6.12.84-7.43.72-.32-.03-.79-.28-1.18-.46-1.78-20.01-3.56-40.01-5.34-60.02-.07-.75,1.02-1.23,3.27-1.42,12.26-1.06,24.54-1.97,36.82-2.72,6.4-.23,11.36.96,14.82,3.53,3.47,2.57,5.31,6.37,5.55,11.37.31,6.51-2.85,11.42-9.42,14.8,1.26.31,2.41.77,3.43,1.39,1.03.62,1.89,1.3,2.59,2.03.7.73,1.32,1.62,1.87,2.68.55,1.05.98,2.04,1.3,2.97.32.93.61,2.03.88,3.31.27,1.28.46,2.39.59,3.33.13.94.28,2.06.47,3.35.18,1.3.34,2.32.45,3.07.07,1.42.1,2.13.17,3.55.1.43.38,1.02.84,1.78.46.76.81,1.37.87,1.7.09.46-.07.81-.29.82ZM141.81,123.2c.11,1.61.21,2.81.3,3.58.08.78.31,1.79.67,3.03.37,1.24.84,2.11,1.44,2.61,1.16-.08,2.25-.28,3.27-.59,1.02-.31,2-.77,2.93-1.37.93-.6,1.65-1.45,2.15-2.55.5-1.1.71-2.39.61-3.86-.05-.83-.25-1.56-.6-2.17-.35-.61-.82-1.09-1.43-1.43-.61-.34-1.21-.6-1.79-.79-.59-.19-1.3-.31-2.12-.34-.83-.04-1.48-.06-1.96-.05-.48,0-1.05.03-1.72.08-.4.03-.6.04-1,.07-.41.22-.65.61-.74,1.19s-.09,1.44,0,2.59Z"/>
            <path class="cls-3" d="M184.15,163.01c-.03-.61-.04-.92-.07-1.53-.2-4.6-.43-11.39-.71-20.38-.27-8.99-.51-15.78-.7-20.38-.28-6.68-.43-10.02-.71-16.7,16.4-.68,32.82-1.14,49.23-1.26.05,5.3.07,7.95.12,13.25,0,.08,0,.28,0,.61,0,.32,0,.54,0,.65,0,.11-.01.3-.04.59-.03.28-.07.48-.14.59-.07.11-.17.26-.29.47-.12.2-.27.35-.44.43-.17.08-.39.16-.67.23-.28.07-.58.11-.92.11-.47,0-.7,0-1.17.01-7.22.08-13.8.1-19.74.03-.05.43-.12,1.1-.22,2.01-.1.91-.18,1.7-.23,2.39-.05.69-.07,1.35-.05,2,7.93-.2,11.89-.28,19.82-.37.83,0,1.39.09,1.67.3.28.21.42.56.43,1.05,0,.13-.01.35-.04.65-.03.3-.04.51-.04.65.01,1.29.07,3.2.18,5.73.11,2.53.26,4.54.18,5.73-.03.5-.29.81-.65.81-.16,0-.3-.05-.41-.16-8.68.52-15.1.88-19.27.98-.43.01-.64.02-1.07.03.06,2.33.09,3.49.15,5.81,2.43-.06,5.95-.25,10.56-.55,4.6-.3,8.06-.44,10.36-.47,1.81-.02,2.85.35,3.13,1.1,0,1.23.01,1.84.02,3.07.01,1.29.05,3.2.13,5.73.07,2.53.12,4.44.13,5.73.01,1.35-.52,2.02-1.6,2.03-1.41.01-3.57.02-6.49.03-2.92.01-5.13.04-6.65.07-3.89.07-9.46.29-16.69.71-7.23.42-12.46.75-15.7.91-.48-.5-.71-.75-1.19-1.24-.14-.75-.22-1.23-.22-1.45Z"/>
            <path class="cls-3" d="M237.92,163.37c-.03-7.3-.05-10.95-.08-18.25-.1-12.73.2-25.48.51-38.21,0-1.32,0-1.99-.01-3.31,0-.59.11-.94.33-1.05,9.7-.05,19.41.02,29.11.19.28,0,.84,1.04,1.66,3.1.82,2.06,1.81,4.71,2.97,7.95,1.15,3.24,1.96,5.47,2.44,6.69,2.21,5.96,3.31,8.94,5.47,14.91.16-6.27.24-9.4.4-15.66.03-1.35.13-3.82.3-7.41.16-3.59.24-6.41.28-8.42.01-.75,2.28-1.08,6.8-.94,1.41.04,3.34.13,5.79.27,2.45.14,3.96.22,4.52.24,1.29.05,1.93.07,3.21.12.45.02.67.11.67.27-.2,10.71-.63,21.42-1.04,32.13-.38,9.33-.75,18.67-1.13,28-.22.69-1.09,1.01-2.63.95-.42-.02-.63-.02-1.05-.04-1.4-.05-3.47-.1-6.2-.14-2.73-.04-4.8-.07-6.2-.11-4.76-.14-7.15-.2-11.91-.29-.38-.14-1.13-1.86-2.26-5.13-1.21-3.54-3.02-8.68-5.47-15.4-2.45-6.71-3.85-10.46-4.15-11.24-.02,1.59-.06,3.96-.12,7.11-.06,3.15-.1,5.52-.12,7.11-.01,1.18,0,2.96.02,5.33.03,2.37.03,4.15.02,5.33-.02,2.04-.04,3.05-.06,5.09-.01,1.24-.56,1.85-1.64,1.84-7.46-.08-11.18-.09-18.64-.07-.71-.39-1.07-.58-1.79-.96Z"/>
            <path class="cls-3" d="M306.49,163.95c.02-.52.03-.77.06-1.29.1-2.31.27-5.04.49-8.18.22-3.14.44-4.74.5-4.71.02.01.44-.42,1.25-1.36.81-.93,2.32-2.63,4.54-5.08,2.22-2.45,4.54-4.97,6.94-7.57,5.14-5.48,7.73-8.21,12.97-13.65-2.53-.16-6.27-.34-11.2-.53-4.93-.19-9.02-.06-11.2-.44-.37-.06-.67-.35-.79-.66s-.15-.75-.13-1.32c.09-1.94.13-2.9.22-4.84.01-.27,0-1.24-.03-2.91-.04-1.67-.03-2.97,0-3.88.1-2.15.43-3.21.99-3.19,13.98.64,27.96,1.38,41.93,2.22,3.58.27,5.37.41,8.95.7,1.63.13,2.62.35,2.96.65.34.3.45,1.2.33,2.7-.03.38-.1.85-.2,1.42-.1.57-.16.9-.17.98,0,.1-.01.14-.02.24-.2,2.33-.52,4.41-.96,6.22-.45,1.81-.91,3.3-1.38,4.46-.47,1.16-1.2,2.35-2.18,3.57-.98,1.22-1.83,2.17-2.55,2.85-.72.68-1.85,1.72-3.37,3.1-1.52,1.38-2.78,2.56-3.77,3.54-5.21,5.18-7.79,7.78-12.91,13.01,9.44.63,14.15.98,23.58,1.77.3.02.53.25.68.69.16.43.24,1.09.25,1.99,0,.89-.01,1.65-.05,2.29-.04.63-.11,1.54-.21,2.72-.12,1.48-.19,2.22-.31,3.7-.02.24-.03.72-.04,1.44,0,.72-.02,1.26-.06,1.64-.1,1.23-.39,2.01-.85,2.32-.46.31-1.28.42-2.47.32-.39-.03-.58-.05-.97-.08-5.28-.43-13.17-.97-23.65-1.48-10.49-.51-18.36-.83-23.62-1.08-.92-.04-1.57-.19-1.97-.46-.39-.26-.92-.87-1.58-1.81Z"/>
            <path class="cls-3" d="M434.65,116.7c-2.21,3.13-6.3,8.73-12.16,16.86-5.86,8.12-10.24,14.51-13.21,19.12-.94,8.02-1.41,12.03-2.36,20.05-.19.44-.4.75-.64.92-.24.18-.61.23-1.12.17-2.53-.29-6.29-.7-11.28-1.18-4.99-.49-8.82-.85-11.49-1.11-.87-1.06-1.34-2.37-1.12-3.52.1-.54.3-1.24.4-1.99.1-.75.2-1.7.28-2.85.09-1.15.15-1.89.18-2.21.11-1.16.17-1.74.29-2.89.63-6.4-.16-12.3-2.42-17.68-.33-.87-.68-1.78-1.05-2.74-.37-.95-.72-1.88-1.05-2.78-.33-.9-.68-1.81-1.04-2.73-.36-.92-.72-1.85-1.06-2.77-.35-.92-.69-1.83-1.03-2.73-.34-.9-.7-1.82-1.07-2.77-.38-.95-.75-1.86-1.12-2.74-2.45-4.87-3.68-7.31-6.18-12.17.03-.35.35-.64.97-.89.62-.24,1.22-.34,1.81-.29,4.25.37,6.38.56,10.63.96,1.46.14,3.66.36,6.6.67,2.93.32,5.23.47,6.55.7.37.06.78.53,1.19,1.3.4.77.8,1.8,1.19,3.09.39,1.29.76,2.64,1.12,4.08s.7,3,1.02,4.72c.32,1.71.61,3.22.84,4.52s.47,2.62.71,3.98c.23,1.35.38,2.23.45,2.65,4.06-9.08,6.12-13.61,10.27-22.66,9.5,1.09,14.25,1.67,23.73,2.91.39.11.66.3.82.58.16.28.28.76.36,1.45Z"/>
          </g>
          <g>
            <path class="cls-2" d="M35.95,81.61c-1.37,0-2.72-.06-4.01-.19-3.42-.33-6.41-1.01-8.88-2.02-2.49-1.01-4.79-2.37-6.85-4.04-2.05-1.67-3.78-3.47-5.14-5.35-1.36-1.87-2.56-3.99-3.58-6.3-1.01-2.3-1.81-4.49-2.35-6.52-.55-2.03-1-4.18-1.36-6.41l-.56-3.51c-.34-4.14.14-7.97,1.41-11.44,1.27-3.48,3.07-6.45,5.33-8.82,2.24-2.34,4.93-4.43,8-6.2,3.06-1.76,6.13-3.13,9.15-4.06,2.99-.93,6.05-1.61,9.09-2.02,2.6-.35,5.09-.53,7.42-.53,2.04,0,4.01.14,5.84.41,3.94.58,7.29,1.72,9.96,3.38,2.65,1.65,4.84,3.69,6.51,6.07,1.65,2.36,2.86,5.11,3.59,8.18,0,.04.02.08.02.12l.44,3.85c.17,1.52-1.35,2.43-10.46,3.54-1.54.19-3.68.42-6.42.71-2.72.29-4.51.49-5.36.6-.13.02-.32.05-.57.11-.33.07-.58.12-.75.14s-.33.03-.49.03c-.88,0-1.66-.34-2.24-.99-.57-.63-1.01-1.43-1.29-2.38-.23-.78-.5-1.57-.79-2.35-.23-.62-.6-1.1-1.13-1.48-.36-.26-.8-.38-1.35-.38-.18,0-.36.01-.56.04-.93.13-1.73.37-2.37.74-.59.33-1.02.77-1.31,1.35-.35.68-.62,1.37-.82,2.05-.19.64-.27,1.48-.25,2.49.02,1.1.06,2.03.12,2.77.06.76.16,1.77.31,3.02.09.78.16,1.43.21,1.96.03.33.06.61.09.83.04.32.1.93.16,1.82.06.83.12,1.51.19,2.02.55,3.93,1.96,8.62,5.55,8.62h0c.17,0,.34,0,.52-.03.73-.08,1.32-.41,1.74-.98.48-.66.77-1.33.88-2.06.14-.9.31-1.87.5-2.86.23-1.17.56-2,1.01-2.53.16-.19.39-.31.63-.35,9.57-1.26,14.25-1.83,23.87-2.95.04,0,.16,0,.2,0,1.4,0,2.37.81,2.65,2.22.01.07.02.14.02.21-.04,4.18-.81,8.03-2.3,11.44-1.49,3.41-3.6,6.34-6.26,8.71-2.63,2.34-5.75,4.27-9.26,5.75-3.48,1.47-7.41,2.5-11.67,3.08-2.46.33-4.84.5-7.07.5Z"/>
            <path class="cls-2" d="M106.56,73.31c-1.93,0-3.8-.11-5.57-.33-3.29-.4-6.2-1.1-8.66-2.07-2.48-.98-4.76-2.25-6.8-3.8-2.04-1.55-3.78-3.25-5.17-5.05-1.39-1.8-2.61-3.81-3.62-5.98-1.01-2.16-1.8-4.32-2.35-6.42-.55-2.09-.96-4.29-1.21-6.51l-.49-4.42c-.13-3.97.41-7.65,1.62-11.01,1.21-3.37,2.94-6.32,5.14-8.76,2.18-2.43,4.81-4.58,7.82-6.4,3-1.81,6.23-3.23,9.62-4.25,3.37-1.01,6.93-1.68,10.59-2,1.22-.11,2.5-.16,3.79-.16.85,0,1.72.02,2.59.07,2.21.12,4.6.41,7.08.87,2.53.47,5.01,1.27,7.38,2.38,2.39,1.13,4.44,2.55,6.07,4.22,3.24,3.08,5.71,6.47,7.33,10.06,1.57,3.49,2.53,7.56,2.85,12.08.66,9.28-1.09,17.02-5.19,23l-1.75,2.55c-1.61,2.38-4.02,4.47-7.16,6.22-3.07,1.71-6.22,2.99-9.35,3.82-3.11.82-6.31,1.38-9.52,1.66-1.72.15-3.41.23-5.03.23ZM108.79,24.55c-.26,0-.53.01-.8.04-1.05.09-1.98.4-2.76.9-.81.52-1.45,1.13-1.92,1.8-.47.68-.86,1.6-1.16,2.75-.32,1.21-.53,2.31-.64,3.25-.11.95-.16,2.17-.13,3.62.02,1.48.06,2.63.12,3.42.06.81.15,1.86.27,3.14.11,1.2.27,2.35.47,3.41.19,1.04.51,2.15.95,3.31.42,1.13.92,2.1,1.49,2.9.53.75,1.24,1.36,2.11,1.83.77.41,1.59.62,2.45.62.12,0,.23,0,.35-.01,1.07-.07,2.1-.34,2.98-.78.84-.42,1.54-.92,2.08-1.49.52-.56.96-1.31,1.29-2.23.36-1,.63-1.97.78-2.86.16-.9.25-2.04.26-3.39.02-1.38,0-2.58-.06-3.56-.05-1-.14-2.26-.27-3.78-.09-1.09-.21-2.12-.36-3.05-.15-.93-.36-1.98-.63-3.12-.25-1.07-.6-2-1.05-2.78-.45-.8-.99-1.55-1.6-2.24-.54-.61-1.24-1.06-2.08-1.35-.65-.22-1.38-.34-2.17-.34Z"/>
            <path class="cls-2" d="M181.64,68.45c-2.88,0-5.63-.22-8.17-.66-3.26-.56-6.14-1.4-8.54-2.49-2.42-1.1-4.64-2.48-6.6-4.12-1.96-1.65-3.61-3.43-4.92-5.3-1.3-1.86-2.42-3.93-3.32-6.15-.9-2.21-1.59-4.4-2.04-6.52-.45-2.12-.75-4.33-.89-6.56l-.28-4.43c.06-3.98.78-7.62,2.15-10.91,1.37-3.3,3.24-6.16,5.55-8.5,2.29-2.32,5.02-4.34,8.11-6.01,3.08-1.66,6.38-2.93,9.8-3.77,3.41-.84,7-1.34,10.67-1.48.53-.02,1.07-.03,1.61-.03,1.53,0,3.13.08,4.76.25,2.21.23,4.57.63,7.02,1.21,2.5.59,4.94,1.51,7.25,2.74,2.33,1.24,4.31,2.76,5.86,4.51,3.08,3.23,5.39,6.74,6.83,10.4,1.4,3.57,2.16,7.67,2.26,12.2.2,9.3-1.91,16.94-6.29,22.72l-1.87,2.46c-1.72,2.3-4.23,4.27-7.45,5.86-3.15,1.56-6.35,2.69-9.52,3.36-3.14.67-6.37,1.07-9.59,1.2-.81.03-1.61.05-2.4.05ZM182.81,19.79c-1.05.04-1.99.3-2.79.77-.83.48-1.5,1.06-2,1.7-.5.66-.94,1.56-1.3,2.69-.38,1.19-.64,2.27-.8,3.21-.16.95-.26,2.16-.31,3.6-.05,1.47-.06,2.62-.04,3.42.02.82.06,1.87.12,3.15.05,1.2.16,2.35.31,3.43.15,1.05.41,2.18.78,3.35.36,1.15.82,2.15,1.35,2.97.5.77,1.17,1.42,2.02,1.93.81.49,1.73.75,2.67.75,1.16-.02,2.21-.24,3.11-.64.86-.38,1.59-.84,2.15-1.39.55-.53,1.02-1.26,1.4-2.17.41-.98.72-1.93.92-2.82.2-.89.35-2.03.43-3.37.08-1.39.12-2.58.12-3.56,0-1-.03-2.26-.08-3.79-.04-1.09-.11-2.13-.21-3.07-.1-.94-.27-2-.48-3.14-.2-1.08-.51-2.03-.91-2.83-.41-.82-.92-1.6-1.49-2.31-.52-.64-1.18-1.12-2.01-1.45-.75-.3-1.62-.45-2.57-.45-.12,0-.25,0-.38,0Z"/>
            <path class="cls-2" d="M293.83,66.58c-11.19-.37-16.65-.51-27.84-.67-.36,0-.7-.21-.87-.53-4.31-8.11-6.69-12.52-10.67-19.77-.06.93-.11,1.97-.15,3.13-.1,2.81-.19,4.69-.25,5.6l-.05,9.43c0,.07,0,.18-.02.25-.43,1.97-3.49,2.22-6.1,2.22-2.06,0-3.77,0-5.36,0-4.4,0-7.89.02-13.81.08,0,0-.1,0-.11,0-.71,0-1.27-.07-1.69-.22-.55-.2-.93-.46-1.16-.82-.11-.17-.3-.51-.56-1-.07-.14-.11-.29-.11-.45l-.69-57.42c0-.62,0-1.07,0-1.35.01-.33.07-.7.17-1.13.14-.59.4-1.04.78-1.33.29-.23.67-.41,1.15-.56.46-.14,1-.21,1.64-.22,6.11-.06,9.6-.08,14.37-.08h4.18c5.07.01,6.4.7,6.99,1.29.33.34.51.75.51,1.2,0,0,0,.1,0,.1-.13,7.48-.23,13.62-.28,18.31,3.9-7.25,6.4-11.8,10.93-19.95.18-.32.51-.51.87-.51h.02c3.74.07,5.62.11,9.36.2,18.69.37,19.41,1.14,19.8,1.55.18.19.31.52.3.79-.01.4-.22.74-.53.94-6.02,9.04-12.03,18.08-18.04,27.12v.26s1.29.79,1.29.79c.14.08.25.2.34.34,5.89,9.78,11.79,19.72,17.53,29.55.1.16.14.35.14.54-.03.77-.5,1.47-1.46,2.16-.17.12-.37.19-.58.19-.01,0-.02,0-.03,0Z"/>
            <path class="cls-2" d="M326.01,68.25c-9.29-.52-18.71-.95-27.99-1.28-.27,0-.52-.13-.7-.32-.18-.2-.28-.46-.26-.73.32-6.26.74-11.19,1.04-14.8.08-.89.14-1.7.2-2.4.91-11.37,1.54-23.56,1.8-34.31.03-1.18.01-2.23,0-3.12,0-.76-.02-1.41,0-1.91l.04-1.16c-.08-1.19-.1-2.19-.07-2.96.02-.58.26-1.42,1.3-2.13.17-.11.37-.18.57-.18.03,0,.07,0,.1,0,4.38.45,11.11.9,22.51,1.49,1.68.09,2.95.13,3.87.13.4,0,.72,0,.99-.02.02,0,.04,0,.06,0,.26,0,.52.1.7.29.2.2.31.48.29.77l-3.39,61.69c-.01.27-.13.51-.33.69-.18.16-.42.25-.67.25-.02,0-.04,0-.06,0Z"/>
            <path class="cls-2" d="M400.39,73.83c-.31,0-.65-.02-1.02-.06l-1.12-.12c-1.61-.17-3.89-.37-6.6-.59-2.92-.24-5.14-.42-6.64-.56-5.08-.48-7.63-.71-12.71-1.15-.11,0-.21-.04-.31-.08-.6-.26-1.14-.84-2.64-5.92-.94-3.17-2.54-8.48-4.85-15.74-.87-2.74-1.59-4.99-2.16-6.77-.06.66-.12,1.37-.18,2.12-.27,3.13-.47,5.49-.59,7.07-.09,1.18-.2,2.94-.32,5.3-.12,2.38-.24,4.16-.33,5.35l-.39,5.07c-.13,1.66-1.12,2.65-2.65,2.65-.1,0-.2,0-.3-.01-8.01-.61-11.92-.88-19.91-1.38-.16,0-.31-.06-.45-.14l-1.78-1.05c-.32-.19-.58-.59-.56-.96l1.12-18.22c.75-12.95,1.93-25.74,3.07-38.12l.2-3.28c.06-1.02.43-1.66,1.07-1.9.11-.04.23-.06.35-.06.02,0,.04,0,.06,0,10.3.63,20.75,1.39,31.05,2.25.78.06,1.28.62,2.43,3.87.76,2.15,1.65,4.9,2.67,8.19,1.1,3.56,1.76,5.66,2.16,6.83,1.41,4.34,2.31,7.14,3.4,10.57l.98-10.67c.12-1.32.38-3.73.79-7.39.43-3.79.69-6.63.83-8.35.14-1.62,2.59-1.62,3.91-1.62,1.17,0,2.68.09,4.49.26,1.59.15,3.67.39,6.19.69,2.6.31,4.19.51,4.79.57l3.42.36c1.54.16,1.62,1.04,1.58,1.42-.8,9.6-1.81,19.36-2.8,28.79l-.33,3.2-2.97,27.87c0,.09-.03.19-.07.27-.39.95-1.36,1.43-2.88,1.43Z"/>
            <path class="cls-2" d="M467.9,82.7c-5.67-.02-10.22-.28-13.92-.81l-1.12-.16c-.78-.11-1.97-.22-3.53-.33-1.44-.1-2.58-.22-3.38-.31l-.26-.03c-8.68-.92-20.47-5.46-26.21-12.38-5.67-6.82-7.97-15.44-6.83-25.6.42-3.78,1.29-7.24,2.59-10.28,1.3-3.06,2.9-5.65,4.74-7.69,1.84-2.03,4.01-3.79,6.44-5.24,2.42-1.44,4.92-2.54,7.41-3.28,2.48-.73,5.14-1.26,7.91-1.57,2.18-.24,4.27-.36,6.21-.36.52,0,1.04,0,1.54.03,2.37.08,4.77.29,7.16.62,1.75.24,3.49.55,5.15.93,1.67.37,3.55.89,5.59,1.52,2.09.65,4.04,1.49,5.8,2.48,1.75.99,3.42,2.14,4.96,3.42,1.59,1.33,2.92,2.95,3.95,4.82,1.03,1.88,1.67,3.95,1.91,6.15.03.91-.01,3.19-.14,6.82,0,.09-.02.18-.04.27-.22.71-.88,1.56-2.74,1.56-.41,0-.87-.04-1.38-.12-2.48-.39-6.07-.99-11.04-1.84-2.01-.34-3.89-.6-5.54-.82-2.35-.32-4.2-.57-5.44-.93-.56-.17-1.08-.65-1.38-1.3-.21-.46-.34-.96-.37-1.46-.02-.33-.07-.69-.16-1.08-.08-.36-.2-.68-.36-.96-.05-.09-.22-.32-.8-.62-.5-.26-1.17-.45-2-.56-.45-.06-.89-.09-1.3-.09-.61,0-1.19.07-1.73.2-.91.23-1.67.55-2.26.95-.58.4-1.12,1-1.62,1.78-.54.85-.96,1.64-1.27,2.35-.3.7-.58,1.63-.85,2.77-.27,1.16-.46,2.09-.56,2.76-.1.69-.23,1.6-.38,2.74-.04.33-.08.74-.12,1.23-.04.54-.07.91-.1,1.1l-.16,1.2c-.11.84-.18,1.53-.23,2.08-.04.53-.05,1.23-.04,2.1.01.82.09,1.52.23,2.07.14.56.37,1.18.7,1.86.3.61.7,1.12,1.18,1.53.52.44,1.22.85,2.08,1.22.86.38,1.88.65,3.04.8,1.9.26,3.62.39,5.11.39.68,0,1.32-.03,1.92-.08l.45-3.12-.58-.08c-.08.02-.17.04-.25.04-.04,0-.07,0-.11,0l-3.14-.44c-.22-.03-.63-.07-1.21-.13-.62-.06-1.12-.11-1.51-.17-.27-.04-.51-.18-.67-.39l-1.36-1.81c-.16-.21-.23-.47-.19-.73l1.5-11.04c.14-1.03.93-1.94,2.4-2.76.15-.08.32-.13.49-.13.04,0,.09,0,.14,0l3.18.44c2.3.32,5.01.73,8.04,1.22,3.13.51,5.54.89,7.21,1.14l3.53.53c1.72.26,3.05.48,4.01.66,1,.18,2.11.49,3.29.92.96.35,2.61,1.08,2.82,2.13.33,1.71-.39,4.97-1.31,9.1-.44,1.98-.94,4.23-1.36,6.47-1.21,6.56-2.07,11.42-2.55,14.45,0,.05,0,.12,0,.22,0,.24-.01.44-.03.59l-.14.88c-.04.25-.17.47-.37.63-.9.71-2.88,1.53-10.28,1.53h-.34Z"/>
            <path class="cls-2" d="M69.97,176.57c-.49,0-.86-.05-1.16-.17-.49-.19-.78-.66-1.16-1.36-.25-.46-.42-.81-.55-1.12-.14-.34-.27-.8-.39-1.38-.11-.52-.18-.9-.23-1.13-.04-.24-.1-.7-.18-1.38-.07-.63-.11-1.02-.13-1.18l-6.8-53.53c-.05-.42.07-.84.34-1.2.54-.69,1.78-1.48,6.92-2.1.48-.06,1.18-.13,2.08-.21.87-.08,1.47-.14,1.81-.18,2.22-.26,5.51-.7,9.89-1.27,5.08-.67,8.23-1.03,9.98-1.21,1.67-.18,4.06-.4,6.92-.63,3.05-.25,5.42-.46,7.1-.62.21-.02.53-.06.95-.13.48-.07.83-.12,1.07-.14.26-.02.51-.04.74-.04.91,0,1.6.19,2.12.58.67.51,1.05,1.41,1.18,2.76l1.31,14.07c.05.52-.31.99-.82,1.08-1.6.28-3.3.54-5.08.75-1.75.21-3.97.46-6.67.76l-1.52.17c-1.82.2-2.99.33-3.52.39-1.95.2-3.07.32-4.76.51.03.36.07.78.1,1.25.08.95.14,1.68.19,2.18v.07c5.7-.99,10.74-1.71,14.99-2.12.78-.08,1.53-.11,2.22-.11.51,0,1,.02,1.46.06.59.05,2.37.21,2.5,1.61l1.26,13.43c.14,1.5-.1,2.55-.75,3.22-.6.63-1.5.99-2.74,1.11-.24.02-.67.04-1.29.04-.54,0-.96.02-1.27.05-5.25.85-9.89,1.53-14.1,2.08.18,1.56.45,3.66.81,6.37.44,3.28.75,5.77.93,7.4l.54,4.98c.11,1,.06,1.66-.17,2.12-.3.59-.99,1.05-1.86,1.21-1.38.27-3.27.47-5.67.72-1.73.18-3.69.39-5.83.67-1.83.24-3.71.56-5.36.85-2.25.39-4.19.73-5.4.73Z"/>
            <path class="cls-2" d="M121.65,170.82c-.19,0-.37,0-.53-.02-.43-.04-.86-.25-1.27-.44l-.23-.11c-.33-.15-.55-.46-.58-.82l-5.34-60.02c-.04-.46.1-.89.4-1.24.58-.7,1.75-1.09,3.79-1.26,12.18-1.06,24.58-1.97,36.85-2.73.56-.02,1.08-.03,1.59-.03,5.85,0,10.53,1.27,13.89,3.76,3.7,2.74,5.7,6.82,5.95,12.13.29,6.18-2.39,11.08-7.98,14.61.53.23,1.03.49,1.51.77,1.1.66,2.04,1.4,2.8,2.2.76.8,1.45,1.78,2.03,2.91.57,1.09,1.02,2.13,1.36,3.1.33.97.64,2.12.91,3.43.27,1.29.47,2.43.6,3.4.13.94.28,2.05.47,3.35.18,1.29.33,2.31.45,3.06,0,.04,0,.07.01.11l.16,3.44c.07.22.24.65.7,1.42.56.93.9,1.53,1,2.03.11.58,0,1.14-.3,1.52-.12.15-.26.27-.42.35-.79.71-2.11,1.14-4.14,1.36-1.81.19-4.06.29-6.7.29h-2.88c-1.17,0-1.82,0-1.96,0-1.81.1-3.09.15-3.92.15h-.11c-1.55.1-4.02.25-4.04.25-.08,0-.16,0-.24-.03-.99-.25-1.74-1.26-2.38-3.2-.52-1.57-1.08-3.86-1.67-6.81-.58-2.91-.9-4.46-.94-4.65-.35-3.25-1.01-4.3-1.37-4.66-.5-.49-1.41-.74-2.71-.74-.25,0-.52,0-.8.03l-.81.06,1.32,18.66c0,.06,0,.11,0,.17-.05.47-.31,1.14-1.33,1.66-.6.3-1.42.53-2.48.68-.97.14-1.83.24-2.59.32-.75.07-1.74.14-2.97.2-1.2.07-1.94.11-2.2.13-2.33.18-3.49.28-5.82.47-1.34.11-2.61.27-3.74.42-1.34.17-2.5.32-3.34.32ZM142.92,120.4c-.04.06-.09.17-.12.36-.05.34-.09,1.03,0,2.37.11,1.59.21,2.78.29,3.55.08.71.29,1.67.64,2.85.28.96.6,1.53.86,1.86.91-.09,1.79-.26,2.6-.51.93-.28,1.83-.71,2.68-1.25.78-.5,1.36-1.19,1.78-2.12.43-.94.61-2.08.52-3.38-.04-.68-.2-1.26-.47-1.74-.26-.45-.6-.79-1.05-1.04-.55-.31-1.09-.55-1.62-.72-.5-.16-1.13-.26-1.86-.3-.71-.03-1.29-.05-1.74-.05h-.17c-.46,0-1.01.03-1.66.08l-.7.05Z"/>
            <path class="cls-2" d="M185.57,166.7c-.27,0-.53-.11-.72-.31l-1.19-1.24c-.13-.14-.22-.32-.26-.51-.2-1.06-.23-1.42-.24-1.59l-.07-1.53c-.2-4.66-.44-11.52-.71-20.39-.28-9.15-.51-15.82-.7-20.37l-.71-16.7c-.01-.27.08-.52.26-.72s.43-.31.69-.32c17.6-.73,33.71-1.14,49.27-1.26h0c.55,0,1,.44,1,.99l.13,14.5c0,.12-.01.35-.04.68-.04.46-.13.78-.29,1.03-.07.11-.16.26-.28.45-.22.37-.51.64-.84.8-.24.12-.53.22-.87.3-.35.09-.74.14-1.15.14h-1.17c-4.48.06-8.45.09-12.14.09-2.32,0-4.56,0-6.72-.03-.04.32-.08.69-.12,1.11-.1.89-.18,1.68-.23,2.35-.02.3-.04.6-.05.9,7.28-.18,11.17-.25,18.8-.34h.12c1.02,0,1.71.16,2.17.51.37.28.81.83.82,1.83,0,.15-.01.4-.04.74-.02.26-.03.44-.03.56.01,1.27.07,3.14.18,5.7.03.67.06,1.31.09,1.9.08,1.68.15,3.01.09,3.94-.07,1.02-.74,1.74-1.64,1.75-.25,0-.48-.05-.68-.14-8.66.52-14.87.87-18.99.97h-.07s.1,3.81.1,3.81c2.23-.08,5.3-.25,9.52-.52,4.39-.28,7.99-.44,10.41-.47h.15c.81,0,3.28,0,3.93,1.75.04.11.06.22.06.34l.02,3.07c.01,1.29.05,3.19.13,5.71.07,2.54.12,4.46.13,5.75.02,1.89-.96,3.03-2.6,3.04-1.11.01-2.7.02-4.76.03h-1.73c-2.91.02-5.12.05-6.63.08-4.3.08-10.05.33-16.65.71l-6.49.38c-3.97.24-7.04.42-9.22.53-.02,0-.03,0-.05,0Z"/>
            <path class="cls-2" d="M297.46,165.95l-1.05-.04c-1.52-.06-3.65-.1-6.18-.14-2.74-.04-4.81-.07-6.22-.11-4.76-.14-7.14-.2-11.9-.29-.12,0-.23-.02-.34-.07-.49-.19-1-.38-2.84-5.74-1.58-4.61-3.42-9.78-5.46-15.38-.91-2.49-1.68-4.58-2.3-6.25-.01.57-.02,1.17-.04,1.8-.06,3.14-.1,5.51-.12,7.1-.01,1.18,0,2.95.02,5.31.03,2.38.03,4.16.02,5.35l-.06,5.09c-.02,1.77-1,2.83-2.61,2.83-5.61-.06-9.03-.08-13.1-.08-1.67,0-5.57,0-5.57,0-.17,0-.33-.04-.48-.12l-1.78-.96c-.32-.17-.52-.51-.53-.88l-.08-18.25c-.1-13,.23-26.41.51-38.23v-3.28c-.01-.38-.02-1.52.89-1.96.13-.06.28-.1.43-.1,2.05,0,4.09-.01,6.14-.01,7.64,0,15.38.07,22.99.2.81.01,1.32.58,2.57,3.73.84,2.12,1.85,4.8,2.98,7.99,1.27,3.55,1.99,5.55,2.43,6.67,1.52,4.09,2.51,6.77,3.68,9.97l.26-10.38c.03-1.35.13-3.78.3-7.43.14-3.02.23-5.84.28-8.39.03-1.63,2.3-1.95,5.95-1.95.58,0,1.2,0,1.88.03,1.51.05,3.47.14,5.82.27,2.44.14,3.94.22,4.5.24l3.21.12c1.55.06,1.64,1.01,1.63,1.3-.18,9.61-.55,19.39-.91,28.85l-.13,3.28-1.13,28c0,.09-.02.17-.04.26-.34,1.1-1.43,1.66-3.23,1.66-.13,0-.26,0-.39,0Z"/>
            <path class="cls-2" d="M359.08,169.89c-.27,0-.55-.01-.87-.04l-.97-.08c-4.56-.37-12.36-.93-23.62-1.48-6.59-.32-12.15-.57-16.68-.77-2.68-.12-4.99-.22-6.95-.31-1.11-.05-1.92-.25-2.47-.62-.51-.34-1.09-.99-1.85-2.07-.13-.18-.19-.4-.18-.62l.06-1.29c.1-2.31.27-5.07.49-8.21.32-4.48.42-5.41,1.05-5.59.17-.18.48-.52.95-1.06.91-1.05,2.53-2.87,4.55-5.1,2.23-2.45,4.54-4.98,6.95-7.58,4.62-4.93,7.14-7.59,11.47-12.1-2.08-.11-5.02-.25-9.01-.4-1.75-.07-3.4-.09-4.89-.12-2.78-.04-4.97-.08-6.45-.34-.71-.12-1.32-.64-1.56-1.31-.16-.44-.22-1-.18-1.7l.22-4.84c0-.17,0-.79-.04-2.84-.04-1.69-.03-3.02,0-3.95.06-1.35.19-4.14,1.97-4.14,13.65.62,27.76,1.37,42.01,2.22,3.6.27,5.39.41,8.97.7,2.44.2,3.16.56,3.54.89.63.55.83,1.61.67,3.54-.03.4-.1.9-.21,1.52-.09.5-.14.8-.16.9l-.02.2c-.2,2.39-.53,4.54-.99,6.4-.46,1.86-.94,3.4-1.42,4.6-.51,1.25-1.29,2.53-2.33,3.82-1.03,1.27-1.89,2.24-2.64,2.95-.73.69-1.86,1.72-3.39,3.11-1.49,1.35-2.74,2.53-3.74,3.51-4.69,4.67-7.21,7.2-11.38,11.45,8.08.54,12.7.9,21.43,1.62.41.03,1.15.25,1.54,1.34.2.55.3,1.31.3,2.32,0,.9-.01,1.69-.05,2.35-.04.64-.11,1.55-.21,2.74l-.31,3.7c-.02.23-.03.68-.04,1.36,0,.75-.03,1.32-.06,1.71-.13,1.59-.54,2.56-1.28,3.06-.53.36-1.26.53-2.25.53Z"/>
            <path class="cls-2" d="M405.52,174.85c-.15,0-.31,0-.48-.03-2.07-.24-5.71-.64-11.26-1.18l-5.81-.56c-2.27-.22-4.16-.4-5.68-.55-.26-.03-.5-.16-.67-.36-1.11-1.35-1.6-2.94-1.33-4.34.04-.2.09-.42.14-.65.09-.39.19-.83.25-1.29.1-.73.19-1.67.28-2.79.09-1.17.15-1.91.18-2.24l.29-2.9c.62-6.24-.17-12.02-2.35-17.2l-1.06-2.76c-.37-.96-.72-1.89-1.06-2.79-.33-.89-.68-1.8-1.03-2.72-.36-.93-.72-1.86-1.07-2.79l-1.03-2.73c-.34-.89-.69-1.81-1.07-2.76-.37-.94-.75-1.85-1.11-2.71-2.42-4.81-3.65-7.25-6.15-12.11-.09-.17-.12-.35-.11-.54.06-.75.6-1.34,1.59-1.74.63-.25,1.26-.38,1.88-.38.13,0,.26,0,.39.02,4.26.37,6.38.56,10.64.96,1.46.14,3.67.36,6.61.67,1.1.12,2.11.21,3.01.3,1.53.15,2.74.26,3.6.41.71.12,1.33.72,1.9,1.82.43.83.85,1.9,1.26,3.26.4,1.31.78,2.7,1.13,4.12.36,1.46.71,3.07,1.03,4.77.33,1.71.61,3.22.85,4.52.2,1.11.4,2.24.6,3.38,3.21-7.17,5.22-11.58,8.93-19.66.17-.36.52-.58.91-.58.04,0,.08,0,.11,0,9.54,1.09,14.2,1.66,23.75,2.92.05,0,.09.01.13.03.8.22,1.22.69,1.42,1.04.24.41.39.99.49,1.84.03.24-.03.49-.18.69-1.41,2-3.55,4.96-6.51,9.05-1.65,2.28-3.54,4.88-5.65,7.82-5.31,7.37-9.82,13.89-13.06,18.89l-2.33,19.82c-.01.1-.04.19-.07.28-.26.61-.58,1.05-.97,1.33-.35.26-.81.39-1.35.39Z"/>
          </g>
        </g>
      </g>
    </g>
  </g>
</svg>